<svg xmlns="http://www.w3.org/2000/svg" xmlns:xlink="http://www.w3.org/1999/xlink" width="2000" zoomAndPan="magnify" viewBox="0 0 1500 1499.999933" height="2000" preserveAspectRatio="xMidYMid meet" version="1.0"><path fill="#432dd7" d="M 1120.769531 368.011719 C 1114.097656 367.96875 1107.433594 368.105469 1100.769531 368.425781 C 1094.105469 368.742188 1087.457031 369.242188 1080.820312 369.921875 C 1074.183594 370.605469 1067.570312 371.464844 1060.980469 372.503906 C 1054.390625 373.542969 1047.835938 374.761719 1041.3125 376.160156 C 1034.789062 377.554688 1028.308594 379.128906 1021.871094 380.875 C 1015.433594 382.625 1009.050781 384.546875 1002.714844 386.644531 C 996.382812 388.742188 990.113281 391.007812 983.902344 393.445312 C 977.691406 395.882812 971.554688 398.488281 965.488281 401.257812 C 959.417969 404.027344 953.429688 406.964844 947.523438 410.058594 C 941.613281 413.15625 935.792969 416.414062 930.0625 419.824219 C 924.332031 423.238281 918.695312 426.804688 913.160156 430.527344 C 907.621094 434.246094 902.191406 438.113281 896.863281 442.128906 C 891.535156 446.144531 886.320312 450.300781 881.222656 454.601562 C 876.121094 458.898438 871.140625 463.332031 866.28125 467.902344 C 861.421875 472.472656 856.6875 477.171875 852.085938 482 C 847.480469 486.828125 843.011719 491.773438 838.675781 496.84375 L 784.054688 559.761719 L 905.972656 700.578125 L 977.878906 617.609375 C 982.277344 612.476562 986.941406 607.59375 991.871094 602.964844 C 996.800781 598.335938 1001.964844 593.988281 1007.367188 589.921875 C 1012.769531 585.851562 1018.375 582.089844 1024.183594 578.632812 C 1029.996094 575.175781 1035.976562 572.042969 1042.128906 569.234375 C 1048.277344 566.425781 1054.5625 563.960938 1060.984375 561.835938 C 1067.402344 559.710938 1073.917969 557.941406 1080.53125 556.523438 C 1087.140625 555.109375 1093.8125 554.054688 1100.539062 553.363281 C 1107.265625 552.671875 1114.007812 552.347656 1120.769531 552.386719 C 1123.796875 552.347656 1126.824219 552.382812 1129.851562 552.488281 C 1132.878906 552.597656 1135.902344 552.78125 1138.917969 553.039062 C 1141.9375 553.296875 1144.945312 553.632812 1147.945312 554.039062 C 1150.949219 554.445312 1153.9375 554.925781 1156.914062 555.484375 C 1159.890625 556.039062 1162.855469 556.667969 1165.800781 557.367188 C 1168.746094 558.070312 1171.671875 558.84375 1174.582031 559.691406 C 1177.488281 560.539062 1180.375 561.457031 1183.238281 562.449219 C 1186.097656 563.4375 1188.933594 564.496094 1191.746094 565.628906 C 1194.554688 566.757812 1197.335938 567.957031 1200.085938 569.226562 C 1202.835938 570.492188 1205.554688 571.828125 1208.238281 573.230469 C 1210.921875 574.632812 1213.570312 576.101562 1216.179688 577.636719 C 1218.792969 579.171875 1221.367188 580.765625 1223.898438 582.429688 C 1226.429688 584.089844 1228.921875 585.8125 1231.367188 587.597656 C 1233.816406 589.382812 1236.214844 591.226562 1238.574219 593.128906 C 1240.929688 595.03125 1243.234375 596.992188 1245.496094 599.011719 C 1247.753906 601.027344 1249.960938 603.101562 1252.117188 605.226562 C 1254.273438 607.355469 1256.375 609.53125 1258.421875 611.765625 C 1260.472656 613.996094 1262.464844 616.277344 1264.398438 618.605469 C 1266.335938 620.933594 1268.210938 623.3125 1270.027344 625.734375 C 1271.847656 628.15625 1273.601562 630.621094 1275.296875 633.132812 C 1276.992188 635.640625 1278.625 638.191406 1280.195312 640.78125 C 1281.765625 643.371094 1283.269531 646 1284.707031 648.664062 C 1286.148438 651.332031 1287.519531 654.03125 1288.824219 656.761719 C 1290.128906 659.496094 1291.367188 662.257812 1292.535156 665.054688 C 1293.703125 667.847656 1294.800781 670.667969 1295.832031 673.515625 C 1296.859375 676.367188 1297.816406 679.238281 1298.703125 682.132812 C 1299.589844 685.03125 1300.40625 687.945312 1301.148438 690.882812 C 1301.890625 693.820312 1302.558594 696.773438 1303.15625 699.742188 C 1303.75 702.710938 1304.273438 705.695312 1304.722656 708.6875 C 1305.167969 711.683594 1305.542969 714.6875 1305.84375 717.703125 C 1306.140625 720.714844 1306.367188 723.734375 1306.515625 726.761719 C 1306.667969 729.785156 1306.742188 732.8125 1306.742188 735.839844 C 1306.742188 738.871094 1306.667969 741.898438 1306.515625 744.921875 C 1306.367188 747.945312 1306.140625 750.964844 1305.84375 753.980469 C 1305.542969 756.996094 1305.167969 760 1304.722656 762.996094 C 1304.273438 765.988281 1303.75 768.972656 1303.15625 771.941406 C 1302.558594 774.910156 1301.890625 777.863281 1301.148438 780.800781 C 1300.40625 783.738281 1299.589844 786.652344 1298.703125 789.550781 C 1297.816406 792.445312 1296.859375 795.316406 1295.832031 798.164062 C 1294.800781 801.015625 1293.703125 803.835938 1292.535156 806.628906 C 1291.367188 809.425781 1290.128906 812.1875 1288.824219 814.921875 C 1287.519531 817.652344 1286.148438 820.351562 1284.707031 823.015625 C 1283.269531 825.683594 1281.765625 828.308594 1280.195312 830.902344 C 1278.625 833.492188 1276.992188 836.042969 1275.296875 838.550781 C 1273.601562 841.0625 1271.847656 843.527344 1270.027344 845.949219 C 1268.210938 848.371094 1266.335938 850.75 1264.398438 853.078125 C 1262.464844 855.40625 1260.472656 857.6875 1258.421875 859.917969 C 1256.375 862.148438 1254.273438 864.328125 1252.117188 866.457031 C 1249.960938 868.582031 1247.753906 870.65625 1245.496094 872.671875 C 1243.234375 874.691406 1240.929688 876.652344 1238.570312 878.554688 C 1236.214844 880.457031 1233.816406 882.300781 1231.367188 884.085938 C 1228.921875 885.871094 1226.429688 887.59375 1223.898438 889.253906 C 1221.367188 890.914062 1218.792969 892.511719 1216.179688 894.046875 C 1213.570312 895.582031 1210.921875 897.050781 1208.238281 898.453125 C 1205.554688 899.855469 1202.835938 901.191406 1200.085938 902.457031 C 1197.335938 903.726562 1194.554688 904.925781 1191.746094 906.054688 C 1188.933594 907.1875 1186.097656 908.246094 1183.238281 909.234375 C 1180.375 910.226562 1177.488281 911.144531 1174.582031 911.992188 C 1171.671875 912.839844 1168.746094 913.613281 1165.800781 914.316406 C 1162.855469 915.015625 1159.890625 915.644531 1156.914062 916.199219 C 1153.9375 916.757812 1150.949219 917.238281 1147.945312 917.644531 C 1144.945312 918.050781 1141.9375 918.386719 1138.917969 918.644531 C 1135.902344 918.902344 1132.878906 919.085938 1129.851562 919.195312 C 1126.824219 919.300781 1123.796875 919.335938 1120.769531 919.292969 C 1114.03125 919.339844 1107.308594 919.019531 1100.601562 918.332031 C 1093.898438 917.644531 1087.25 916.597656 1080.660156 915.1875 C 1074.066406 913.777344 1067.574219 912.015625 1061.175781 909.898438 C 1054.773438 907.78125 1048.511719 905.324219 1042.378906 902.527344 C 1036.246094 899.726562 1030.285156 896.605469 1024.492188 893.160156 C 1018.699219 889.714844 1013.113281 885.960938 1007.726562 881.90625 C 1002.34375 877.855469 997.195312 873.519531 992.28125 868.90625 C 987.371094 864.289062 982.722656 859.421875 978.339844 854.300781 C 711.324219 545.976562 838.1875 692.871094 668.589844 496.613281 C 664.25 491.554688 659.773438 486.613281 655.164062 481.792969 C 650.554688 476.976562 645.820312 472.285156 640.957031 467.726562 C 636.09375 463.164062 631.109375 458.738281 626.003906 454.445312 C 620.902344 450.15625 615.683594 446.003906 610.355469 441.996094 C 605.027344 437.988281 599.59375 434.128906 594.054688 430.417969 C 588.515625 426.703125 582.878906 423.144531 577.148438 419.738281 C 571.417969 416.328125 565.597656 413.082031 559.6875 409.988281 C 553.78125 406.898438 547.792969 403.96875 541.726562 401.203125 C 535.660156 398.4375 529.519531 395.839844 523.3125 393.40625 C 517.105469 390.972656 510.835938 388.710938 504.503906 386.617188 C 498.171875 384.527344 491.789062 382.609375 485.351562 380.863281 C 478.917969 379.117188 472.441406 377.546875 465.917969 376.152344 C 459.398438 374.757812 452.84375 373.539062 446.257812 372.503906 C 439.671875 371.464844 433.0625 370.605469 426.429688 369.925781 C 419.796875 369.246094 413.148438 368.746094 406.488281 368.425781 C 399.828125 368.109375 393.164062 367.96875 386.496094 368.011719 C 380.449219 367.972656 374.40625 368.082031 368.367188 368.335938 C 362.324219 368.59375 356.296875 369 350.273438 369.554688 C 344.253906 370.105469 338.25 370.808594 332.265625 371.660156 C 326.277344 372.511719 320.316406 373.507812 314.378906 374.652344 C 308.445312 375.796875 302.539062 377.085938 296.664062 378.519531 C 290.792969 379.957031 284.957031 381.535156 279.164062 383.257812 C 273.367188 384.980469 267.617188 386.84375 261.914062 388.851562 C 256.210938 390.859375 250.558594 393.003906 244.960938 395.289062 C 239.367188 397.574219 233.828125 399.996094 228.347656 402.554688 C 222.871094 405.113281 217.460938 407.804688 212.113281 410.628906 C 206.769531 413.453125 201.496094 416.410156 196.296875 419.496094 C 191.097656 422.578125 185.976562 425.789062 180.933594 429.128906 C 175.894531 432.464844 170.9375 435.925781 166.066406 439.507812 C 161.195312 443.089844 156.414062 446.789062 151.726562 450.605469 C 147.039062 454.425781 142.449219 458.355469 137.953125 462.398438 C 133.457031 466.445312 129.066406 470.597656 124.777344 474.855469 C 120.488281 479.117188 116.304688 483.480469 112.230469 487.949219 C 108.15625 492.414062 104.195312 496.980469 100.34375 501.640625 C 96.496094 506.304688 92.761719 511.058594 89.148438 515.902344 C 85.53125 520.75 82.039062 525.683594 78.667969 530.699219 C 75.292969 535.71875 72.046875 540.816406 68.929688 545.996094 C 65.808594 551.175781 62.816406 556.425781 59.957031 561.753906 C 57.09375 567.078125 54.367188 572.472656 51.769531 577.933594 C 49.175781 583.394531 46.714844 588.914062 44.390625 594.496094 C 42.070312 600.078125 39.882812 605.714844 37.839844 611.40625 C 35.792969 617.09375 33.890625 622.832031 32.128906 628.613281 C 30.363281 634.398438 28.746094 640.222656 27.269531 646.085938 C 25.796875 651.949219 24.464844 657.84375 23.28125 663.773438 C 22.097656 669.703125 21.058594 675.65625 20.167969 681.636719 C 19.277344 687.617188 18.535156 693.613281 17.9375 699.632812 C 17.34375 705.648438 16.894531 711.675781 16.597656 717.714844 C 16.300781 723.753906 16.152344 729.796875 16.152344 735.839844 C 16.152344 741.886719 16.300781 747.929688 16.597656 753.96875 C 16.894531 760.007812 17.34375 766.035156 17.9375 772.050781 C 18.535156 778.070312 19.277344 784.066406 20.167969 790.046875 C 21.058594 796.027344 22.097656 801.980469 23.28125 807.910156 C 24.464844 813.839844 25.796875 819.734375 27.269531 825.597656 C 28.746094 831.460938 30.363281 837.285156 32.128906 843.070312 C 33.890625 848.851562 35.792969 854.589844 37.839844 860.277344 C 39.882812 865.96875 42.070312 871.605469 44.390625 877.1875 C 46.714844 882.765625 49.175781 888.289062 51.769531 893.75 C 54.367188 899.210938 57.09375 904.601562 59.957031 909.929688 C 62.816406 915.253906 65.808594 920.507812 68.929688 925.6875 C 72.046875 930.863281 75.292969 935.964844 78.667969 940.980469 C 82.039062 946 85.53125 950.933594 89.148438 955.777344 C 92.761719 960.625 96.496094 965.378906 100.34375 970.042969 C 104.195312 974.703125 108.15625 979.269531 112.230469 983.734375 C 116.304688 988.203125 120.488281 992.566406 124.777344 996.828125 C 129.066406 1001.085938 133.457031 1005.238281 137.953125 1009.285156 C 142.449219 1013.328125 147.039062 1017.257812 151.726562 1021.074219 C 156.414062 1024.894531 161.195312 1028.59375 166.066406 1032.175781 C 170.9375 1035.757812 175.894531 1039.21875 180.933594 1042.554688 C 185.976562 1045.890625 191.097656 1049.105469 196.296875 1052.1875 C 201.496094 1055.273438 206.769531 1058.230469 212.113281 1061.054688 C 217.460938 1063.878906 222.871094 1066.570312 228.347656 1069.128906 C 233.828125 1071.6875 239.367188 1074.109375 244.964844 1076.394531 C 250.558594 1078.679688 256.210938 1080.824219 261.914062 1082.832031 C 267.617188 1084.835938 273.367188 1086.703125 279.164062 1088.425781 C 284.957031 1090.148438 290.792969 1091.726562 296.664062 1093.164062 C 302.539062 1094.597656 308.445312 1095.886719 314.378906 1097.03125 C 320.316406 1098.175781 326.277344 1099.171875 332.265625 1100.023438 C 338.25 1100.875 344.253906 1101.574219 350.273438 1102.128906 C 356.296875 1102.683594 362.324219 1103.089844 368.367188 1103.347656 C 374.40625 1103.601562 380.449219 1103.710938 386.496094 1103.667969 C 393.167969 1103.714844 399.832031 1103.578125 406.496094 1103.257812 C 413.160156 1102.9375 419.808594 1102.441406 426.445312 1101.757812 C 433.082031 1101.078125 439.695312 1100.21875 446.285156 1099.179688 C 452.875 1098.140625 459.429688 1096.921875 465.953125 1095.523438 C 472.476562 1094.128906 478.957031 1092.554688 485.394531 1090.804688 C 491.832031 1089.058594 498.214844 1087.136719 504.550781 1085.039062 C 510.882812 1082.941406 517.152344 1080.675781 523.363281 1078.238281 C 529.574219 1075.800781 535.710938 1073.195312 541.777344 1070.425781 C 547.847656 1067.652344 553.835938 1064.71875 559.742188 1061.621094 C 565.652344 1058.527344 571.472656 1055.269531 577.203125 1051.855469 C 582.933594 1048.445312 588.570312 1044.878906 594.105469 1041.15625 C 599.644531 1037.4375 605.074219 1033.570312 610.402344 1029.554688 C 615.730469 1025.539062 620.945312 1021.382812 626.042969 1017.082031 C 631.144531 1012.785156 636.125 1008.347656 640.984375 1003.78125 C 645.84375 999.210938 650.578125 994.511719 655.179688 989.683594 C 659.785156 984.855469 664.253906 979.90625 668.589844 974.835938 L 723.210938 911.917969 L 601.292969 771.101562 L 529.386719 854.070312 C 524.988281 859.207031 520.324219 864.089844 515.394531 868.71875 C 510.464844 873.347656 505.300781 877.695312 499.898438 881.761719 C 494.496094 885.828125 488.890625 889.59375 483.082031 893.050781 C 477.269531 896.507812 471.289062 899.640625 465.136719 902.449219 C 458.988281 905.257812 452.699219 907.722656 446.28125 909.847656 C 439.863281 911.972656 433.347656 913.742188 426.734375 915.160156 C 420.125 916.574219 413.453125 917.628906 406.726562 918.320312 C 400 919.011719 393.257812 919.335938 386.496094 919.292969 C 383.46875 919.335938 380.441406 919.300781 377.414062 919.195312 C 374.386719 919.085938 371.363281 918.902344 368.347656 918.644531 C 365.328125 918.382812 362.320312 918.050781 359.320312 917.644531 C 356.316406 917.238281 353.328125 916.753906 350.351562 916.199219 C 347.375 915.644531 344.410156 915.015625 341.464844 914.3125 C 338.519531 913.613281 335.59375 912.835938 332.683594 911.992188 C 329.777344 911.144531 326.890625 910.226562 324.03125 909.234375 C 321.167969 908.246094 318.332031 907.183594 315.519531 906.054688 C 312.710938 904.925781 309.929688 903.726562 307.179688 902.457031 C 304.429688 901.1875 301.710938 899.851562 299.027344 898.449219 C 296.34375 897.046875 293.695312 895.578125 291.085938 894.046875 C 288.472656 892.511719 285.902344 890.914062 283.367188 889.253906 C 280.835938 887.59375 278.347656 885.871094 275.898438 884.085938 C 273.453125 882.300781 271.050781 880.457031 268.695312 878.554688 C 266.339844 876.652344 264.03125 874.691406 261.773438 872.671875 C 259.511719 870.65625 257.304688 868.582031 255.148438 866.457031 C 252.992188 864.328125 250.890625 862.148438 248.84375 859.917969 C 246.796875 857.6875 244.804688 855.40625 242.867188 853.078125 C 240.933594 850.746094 239.054688 848.371094 237.238281 845.949219 C 235.421875 843.527344 233.664062 841.058594 231.96875 838.550781 C 230.273438 836.039062 228.640625 833.492188 227.070312 830.898438 C 225.503906 828.308594 224 825.683594 222.558594 823.015625 C 221.121094 820.351562 219.75 817.652344 218.441406 814.921875 C 217.136719 812.1875 215.898438 809.421875 214.730469 806.628906 C 213.5625 803.835938 212.464844 801.015625 211.4375 798.164062 C 210.40625 795.316406 209.449219 792.445312 208.5625 789.546875 C 207.675781 786.652344 206.863281 783.734375 206.121094 780.800781 C 205.378906 777.863281 204.707031 774.910156 204.113281 771.941406 C 203.515625 768.972656 202.996094 765.988281 202.546875 762.992188 C 202.097656 760 201.722656 756.996094 201.425781 753.980469 C 201.125 750.964844 200.902344 747.945312 200.75 744.921875 C 200.601562 741.898438 200.527344 738.871094 200.527344 735.839844 C 200.527344 732.8125 200.601562 729.785156 200.75 726.761719 C 200.902344 723.734375 201.125 720.714844 201.425781 717.703125 C 201.722656 714.6875 202.097656 711.683594 202.546875 708.6875 C 202.996094 705.695312 203.515625 702.710938 204.113281 699.742188 C 204.707031 696.773438 205.378906 693.820312 206.121094 690.882812 C 206.863281 687.945312 207.675781 685.03125 208.5625 682.132812 C 209.449219 679.238281 210.40625 676.367188 211.4375 673.519531 C 212.464844 670.667969 213.5625 667.847656 214.730469 665.054688 C 215.898438 662.257812 217.136719 659.496094 218.441406 656.761719 C 219.75 654.03125 221.121094 651.332031 222.558594 648.664062 C 224 646 225.503906 643.375 227.070312 640.78125 C 228.640625 638.191406 230.273438 635.640625 231.96875 633.132812 C 233.664062 630.625 235.421875 628.15625 237.238281 625.734375 C 239.054688 623.3125 240.933594 620.9375 242.867188 618.605469 C 244.804688 616.277344 246.796875 613.996094 248.84375 611.765625 C 250.890625 609.535156 252.992188 607.355469 255.148438 605.226562 C 257.304688 603.101562 259.511719 601.027344 261.773438 599.011719 C 264.03125 596.992188 266.339844 595.03125 268.695312 593.128906 C 271.050781 591.226562 273.453125 589.382812 275.898438 587.597656 C 278.347656 585.8125 280.835938 584.089844 283.367188 582.429688 C 285.902344 580.769531 288.472656 579.171875 291.085938 577.636719 C 293.695312 576.101562 296.34375 574.632812 299.027344 573.230469 C 301.710938 571.828125 304.429688 570.496094 307.179688 569.226562 C 309.929688 567.957031 312.710938 566.757812 315.519531 565.628906 C 318.332031 564.5 321.167969 563.4375 324.03125 562.449219 C 326.890625 561.457031 329.777344 560.539062 332.683594 559.691406 C 335.59375 558.84375 338.519531 558.070312 341.464844 557.367188 C 344.410156 556.667969 347.375 556.039062 350.351562 555.484375 C 353.328125 554.925781 356.316406 554.445312 359.320312 554.039062 C 362.320312 553.632812 365.328125 553.296875 368.347656 553.039062 C 371.363281 552.78125 374.386719 552.597656 377.414062 552.488281 C 380.441406 552.382812 383.46875 552.347656 386.496094 552.386719 C 393.234375 552.34375 399.957031 552.664062 406.664062 553.351562 C 413.367188 554.039062 420.015625 555.085938 426.605469 556.496094 C 433.199219 557.90625 439.691406 559.667969 446.089844 561.785156 C 452.492188 563.902344 458.757812 566.359375 464.886719 569.15625 C 471.019531 571.953125 476.980469 575.078125 482.773438 578.523438 C 488.566406 581.96875 494.152344 585.71875 499.539062 589.773438 C 504.921875 593.828125 510.070312 598.164062 514.984375 602.777344 C 519.894531 607.394531 524.542969 612.261719 528.925781 617.378906 C 795.941406 925.707031 669.078125 778.8125 838.675781 975.066406 C 843.648438 980.988281 848.800781 986.75 854.132812 992.347656 C 859.464844 997.945312 864.96875 1003.371094 870.640625 1008.625 C 876.316406 1013.875 882.148438 1018.945312 888.140625 1023.832031 C 894.132812 1028.71875 900.269531 1033.410156 906.558594 1037.914062 C 912.84375 1042.414062 919.265625 1046.714844 925.820312 1050.8125 C 932.378906 1054.910156 939.054688 1058.796875 945.855469 1062.476562 C 952.65625 1066.15625 959.566406 1069.617188 966.582031 1072.863281 C 973.601562 1076.105469 980.714844 1079.128906 987.921875 1081.925781 C 995.128906 1084.726562 1002.417969 1087.292969 1009.785156 1089.636719 C 1017.152344 1091.976562 1024.589844 1094.085938 1032.089844 1095.957031 C 1039.589844 1097.832031 1047.144531 1099.46875 1054.746094 1100.871094 C 1062.351562 1102.269531 1069.992188 1103.429688 1077.667969 1104.351562 C 1085.34375 1105.269531 1093.042969 1105.949219 1100.761719 1106.386719 C 1108.480469 1106.824219 1116.207031 1107.019531 1123.9375 1106.972656 C 1131.667969 1106.921875 1139.390625 1106.632812 1147.105469 1106.101562 C 1154.820312 1105.566406 1162.507812 1104.792969 1170.171875 1103.777344 C 1177.835938 1102.761719 1185.460938 1101.507812 1193.046875 1100.015625 C 1200.632812 1098.519531 1208.164062 1096.789062 1215.644531 1094.824219 C 1223.121094 1092.855469 1230.527344 1090.65625 1237.867188 1088.226562 C 1245.207031 1085.792969 1252.460938 1083.132812 1259.636719 1080.246094 C 1266.808594 1077.359375 1273.882812 1074.25 1280.859375 1070.917969 C 1287.835938 1067.585938 1294.703125 1064.039062 1301.457031 1060.277344 C 1308.210938 1056.515625 1314.839844 1052.546875 1321.34375 1048.367188 C 1327.851562 1044.1875 1334.21875 1039.808594 1340.449219 1035.230469 C 1346.679688 1030.652344 1352.757812 1025.882812 1358.691406 1020.921875 C 1364.621094 1015.964844 1370.390625 1010.820312 1376 1005.5 C 1381.605469 1000.175781 1387.042969 994.683594 1392.304688 989.019531 C 1397.570312 983.355469 1402.648438 977.535156 1407.546875 971.550781 C 1412.445312 965.570312 1417.152344 959.4375 1421.664062 953.160156 C 1426.175781 946.882812 1430.488281 940.46875 1434.597656 933.921875 C 1438.710938 927.371094 1442.609375 920.703125 1446.300781 913.910156 C 1449.992188 907.113281 1453.46875 900.210938 1456.726562 893.199219 C 1459.984375 886.1875 1463.019531 879.082031 1465.832031 871.878906 C 1468.644531 864.679688 1471.226562 857.394531 1473.582031 850.03125 C 1475.9375 842.667969 1478.058594 835.234375 1479.945312 827.738281 C 1481.835938 820.242188 1483.488281 812.691406 1484.902344 805.089844 C 1486.316406 797.488281 1487.492188 789.851562 1488.425781 782.175781 C 1489.359375 774.5 1490.054688 766.804688 1490.503906 759.085938 C 1490.957031 751.367188 1491.167969 743.644531 1491.132812 735.910156 C 1491.101562 728.179688 1490.824219 720.457031 1490.308594 712.742188 C 1489.789062 705.027344 1489.03125 697.335938 1488.027344 689.671875 C 1487.027344 682.003906 1485.789062 674.375 1484.308594 666.789062 C 1482.828125 659.199219 1481.113281 651.664062 1479.160156 644.183594 C 1477.207031 636.703125 1475.023438 629.289062 1472.605469 621.945312 C 1470.1875 614.601562 1467.539062 607.339844 1464.667969 600.164062 C 1461.792969 592.984375 1458.695312 585.90625 1455.378906 578.921875 C 1452.058594 571.9375 1448.527344 565.066406 1444.777344 558.304688 C 1441.027344 551.542969 1437.070312 544.90625 1432.902344 538.394531 C 1428.738281 531.878906 1424.371094 525.503906 1419.804688 519.265625 C 1415.238281 513.027344 1410.480469 506.9375 1405.53125 500.996094 C 1400.582031 495.054688 1395.449219 489.277344 1390.140625 483.660156 C 1384.828125 478.039062 1379.34375 472.59375 1373.691406 467.320312 C 1368.039062 462.046875 1362.222656 456.953125 1356.25 452.046875 C 1350.277344 447.136719 1344.15625 442.417969 1337.886719 437.894531 C 1331.617188 433.371094 1325.214844 429.046875 1318.671875 424.921875 C 1312.132812 420.800781 1305.46875 416.886719 1298.679688 413.183594 C 1291.894531 409.476562 1285 405.988281 1277.992188 402.71875 C 1270.988281 399.445312 1263.886719 396.398438 1256.691406 393.574219 C 1249.492188 390.746094 1242.214844 388.148438 1234.855469 385.78125 C 1227.496094 383.414062 1220.070312 381.277344 1212.574219 379.375 C 1205.082031 377.472656 1197.535156 375.804688 1189.9375 374.375 C 1182.339844 372.949219 1174.703125 371.757812 1167.027344 370.808594 C 1159.355469 369.859375 1151.660156 369.152344 1143.941406 368.683594 C 1136.226562 368.21875 1128.5 367.996094 1120.769531 368.011719 Z M 1120.769531 368.011719 " fill-opacity="1" fill-rule="nonzero"/></svg>