<svg xmlns="http://www.w3.org/2000/svg" xmlns:xlink="http://www.w3.org/1999/xlink" width="2000" zoomAndPan="magnify" viewBox="0 0 1500 1499.999933" height="2000" preserveAspectRatio="xMidYMid meet" version="1.0"><defs><clipPath id="421b797839"><path d="M 1500 75 L 1500 1425 C 1500 1444.890625 1492.097656 1463.96875 1478.03125 1478.03125 C 1463.96875 1492.097656 1444.890625 1500 1425 1500 L 75 1500 C 55.109375 1500 36.03125 1492.097656 21.96875 1478.03125 C 7.902344 1463.96875 0 1444.890625 0 1425 L 0 75 C 0 33.578125 33.578125 0 75 0 L 1425 0 C 1444.890625 0 1463.96875 7.902344 1478.03125 21.96875 C 1492.097656 36.03125 1500 55.109375 1500 75 Z M 1500 75 " clip-rule="nonzero"/></clipPath><clipPath id="229bd5c8e5"><path d="M 0 0 L 1500 0 L 1500 1500 L 0 1500 Z M 0 0 " clip-rule="nonzero"/></clipPath><clipPath id="b89045b7f8"><path d="M 1500 75 L 1500 1425 C 1500 1444.890625 1492.097656 1463.96875 1478.03125 1478.03125 C 1463.96875 1492.097656 1444.890625 1500 1425 1500 L 75 1500 C 55.109375 1500 36.03125 1492.097656 21.96875 1478.03125 C 7.902344 1463.96875 0 1444.890625 0 1425 L 0 75 C 0 33.578125 33.578125 0 75 0 L 1425 0 C 1444.890625 0 1463.96875 7.902344 1478.03125 21.96875 C 1492.097656 36.03125 1500 55.109375 1500 75 Z M 1500 75 " clip-rule="nonzero"/></clipPath><clipPath id="6ec49cbe38"><rect x="0" width="1500" y="0" height="1500"/></clipPath></defs><g clip-path="url(#421b797839)"><g transform="matrix(1, 0, 0, 1, 0, 0.000000000000112861)"><g clip-path="url(#6ec49cbe38)"><g clip-path="url(#229bd5c8e5)"><g clip-path="url(#b89045b7f8)"><rect x="-330" width="2160" fill="#432dd7" height="2159.999904" y="-329.999985" fill-opacity="1"/></g></g></g></g></g><path fill="#ffffff" d="M 1042.957031 434.921875 C 1037.535156 434.886719 1032.109375 435 1026.691406 435.257812 C 1021.273438 435.515625 1015.863281 435.921875 1010.46875 436.476562 C 1005.070312 437.027344 999.691406 437.730469 994.335938 438.574219 C 988.976562 439.421875 983.644531 440.410156 978.339844 441.546875 C 973.035156 442.683594 967.761719 443.960938 962.527344 445.382812 C 957.292969 446.804688 952.097656 448.371094 946.949219 450.074219 C 941.796875 451.78125 936.699219 453.621094 931.648438 455.605469 C 926.597656 457.585938 921.605469 459.707031 916.671875 461.960938 C 911.734375 464.214844 906.867188 466.597656 902.058594 469.117188 C 897.253906 471.636719 892.523438 474.285156 887.859375 477.058594 C 883.199219 479.835938 878.617188 482.738281 874.113281 485.761719 C 869.609375 488.789062 865.191406 491.933594 860.859375 495.199219 C 856.527344 498.464844 852.289062 501.84375 848.140625 505.339844 C 843.992188 508.835938 839.941406 512.445312 835.988281 516.160156 C 832.035156 519.878906 828.1875 523.699219 824.445312 527.625 C 820.699219 531.550781 817.0625 535.574219 813.539062 539.699219 L 769.117188 590.867188 L 868.269531 705.390625 L 926.75 637.914062 C 930.328125 633.738281 934.117188 629.765625 938.128906 626.003906 C 942.136719 622.238281 946.335938 618.703125 950.730469 615.394531 C 955.125 612.085938 959.683594 609.027344 964.410156 606.214844 C 969.132812 603.402344 974 600.851562 979 598.570312 C 984.003906 596.285156 989.117188 594.28125 994.335938 592.554688 C 999.558594 590.824219 1004.855469 589.386719 1010.234375 588.234375 C 1015.609375 587.082031 1021.035156 586.226562 1026.503906 585.664062 C 1031.976562 585.101562 1037.460938 584.835938 1042.957031 584.871094 C 1045.421875 584.835938 1047.882812 584.863281 1050.34375 584.953125 C 1052.808594 585.039062 1055.265625 585.191406 1057.71875 585.398438 C 1060.171875 585.609375 1062.621094 585.878906 1065.0625 586.210938 C 1067.503906 586.542969 1069.933594 586.933594 1072.355469 587.386719 C 1074.777344 587.835938 1077.183594 588.347656 1079.582031 588.921875 C 1081.976562 589.492188 1084.355469 590.121094 1086.722656 590.808594 C 1089.085938 591.5 1091.433594 592.246094 1093.761719 593.050781 C 1096.089844 593.855469 1098.394531 594.71875 1100.679688 595.636719 C 1102.964844 596.558594 1105.226562 597.53125 1107.464844 598.5625 C 1109.699219 599.59375 1111.910156 600.679688 1114.09375 601.820312 C 1116.277344 602.960938 1118.429688 604.15625 1120.554688 605.402344 C 1122.679688 606.652344 1124.769531 607.949219 1126.832031 609.300781 C 1128.890625 610.652344 1130.914062 612.054688 1132.90625 613.503906 C 1134.894531 614.957031 1136.847656 616.453125 1138.765625 618.003906 C 1140.679688 619.550781 1142.558594 621.144531 1144.394531 622.785156 C 1146.230469 624.425781 1148.027344 626.113281 1149.78125 627.84375 C 1151.535156 629.570312 1153.242188 631.34375 1154.910156 633.160156 C 1156.574219 634.972656 1158.195312 636.828125 1159.769531 638.722656 C 1161.34375 640.617188 1162.867188 642.550781 1164.347656 644.519531 C 1165.824219 646.488281 1167.253906 648.496094 1168.632812 650.535156 C 1170.011719 652.578125 1171.339844 654.652344 1172.613281 656.757812 C 1173.890625 658.863281 1175.113281 661.003906 1176.285156 663.167969 C 1177.457031 665.335938 1178.570312 667.53125 1179.632812 669.753906 C 1180.695312 671.976562 1181.699219 674.226562 1182.652344 676.496094 C 1183.601562 678.769531 1184.496094 681.0625 1185.332031 683.382812 C 1186.167969 685.699219 1186.949219 688.035156 1187.667969 690.390625 C 1188.390625 692.742188 1189.050781 695.117188 1189.65625 697.503906 C 1190.257812 699.890625 1190.804688 702.292969 1191.289062 704.707031 C 1191.773438 707.125 1192.195312 709.550781 1192.5625 711.984375 C 1192.925781 714.421875 1193.230469 716.863281 1193.472656 719.316406 C 1193.71875 721.765625 1193.898438 724.222656 1194.023438 726.683594 C 1194.144531 729.144531 1194.203125 731.605469 1194.203125 734.066406 C 1194.203125 736.53125 1194.144531 738.992188 1194.023438 741.453125 C 1193.898438 743.914062 1193.71875 746.367188 1193.472656 748.820312 C 1193.230469 751.269531 1192.925781 753.714844 1192.5625 756.148438 C 1192.195312 758.585938 1191.773438 761.011719 1191.289062 763.425781 C 1190.804688 765.839844 1190.257812 768.242188 1189.65625 770.632812 C 1189.050781 773.019531 1188.390625 775.390625 1187.667969 777.746094 C 1186.949219 780.101562 1186.167969 782.4375 1185.332031 784.753906 C 1184.496094 787.070312 1183.601562 789.367188 1182.652344 791.636719 C 1181.699219 793.910156 1180.695312 796.15625 1179.632812 798.378906 C 1178.570312 800.601562 1177.457031 802.796875 1176.285156 804.964844 C 1175.113281 807.132812 1173.890625 809.269531 1172.613281 811.375 C 1171.339844 813.484375 1170.011719 815.558594 1168.632812 817.597656 C 1167.253906 819.640625 1165.824219 821.644531 1164.347656 823.617188 C 1162.867188 825.585938 1161.34375 827.519531 1159.769531 829.414062 C 1158.195312 831.308594 1156.574219 833.164062 1154.910156 834.976562 C 1153.242188 836.792969 1151.535156 838.5625 1149.78125 840.292969 C 1148.027344 842.023438 1146.230469 843.707031 1144.394531 845.347656 C 1142.558594 846.988281 1140.679688 848.585938 1138.765625 850.132812 C 1136.847656 851.679688 1134.894531 853.179688 1132.90625 854.632812 C 1130.914062 856.082031 1128.890625 857.484375 1126.832031 858.835938 C 1124.769531 860.183594 1122.679688 861.484375 1120.554688 862.730469 C 1118.429688 863.980469 1116.277344 865.171875 1114.09375 866.3125 C 1111.910156 867.453125 1109.699219 868.539062 1107.464844 869.570312 C 1105.226562 870.601562 1102.964844 871.578125 1100.679688 872.496094 C 1098.394531 873.417969 1096.089844 874.28125 1093.761719 875.085938 C 1091.433594 875.890625 1089.085938 876.636719 1086.722656 877.324219 C 1084.355469 878.015625 1081.976562 878.644531 1079.582031 879.214844 C 1077.183594 879.785156 1074.777344 880.296875 1072.355469 880.75 C 1069.933594 881.199219 1067.503906 881.59375 1065.0625 881.921875 C 1062.621094 882.253906 1060.171875 882.523438 1057.71875 882.734375 C 1055.265625 882.945312 1052.808594 883.09375 1050.34375 883.183594 C 1047.882812 883.269531 1045.421875 883.300781 1042.957031 883.265625 C 1037.476562 883.300781 1032.011719 883.039062 1026.558594 882.480469 C 1021.105469 881.921875 1015.699219 881.070312 1010.335938 879.925781 C 1004.976562 878.777344 999.695312 877.34375 994.492188 875.621094 C 989.285156 873.902344 984.191406 871.902344 979.203125 869.628906 C 974.21875 867.351562 969.371094 864.8125 964.660156 862.011719 C 959.949219 859.207031 955.402344 856.15625 951.023438 852.859375 C 946.644531 849.5625 942.460938 846.039062 938.464844 842.285156 C 934.46875 838.53125 930.6875 834.574219 927.125 830.410156 C 709.964844 579.65625 813.140625 699.121094 675.210938 539.511719 C 671.683594 535.394531 668.042969 531.375 664.292969 527.457031 C 660.546875 523.539062 656.695312 519.726562 652.738281 516.015625 C 648.785156 512.304688 644.730469 508.707031 640.578125 505.214844 C 636.429688 501.726562 632.1875 498.351562 627.851562 495.089844 C 623.519531 491.832031 619.097656 488.691406 614.59375 485.671875 C 610.089844 482.652344 605.507812 479.757812 600.847656 476.988281 C 596.183594 474.21875 591.449219 471.574219 586.644531 469.0625 C 581.839844 466.546875 576.972656 464.164062 572.035156 461.914062 C 567.101562 459.667969 562.109375 457.550781 557.0625 455.574219 C 552.011719 453.59375 546.914062 451.753906 541.765625 450.054688 C 536.617188 448.351562 531.425781 446.792969 526.191406 445.371094 C 520.957031 443.953125 515.6875 442.675781 510.386719 441.539062 C 505.082031 440.40625 499.753906 439.417969 494.394531 438.574219 C 489.039062 437.726562 483.664062 437.03125 478.269531 436.476562 C 472.875 435.925781 467.46875 435.519531 462.050781 435.257812 C 456.636719 435 451.214844 434.886719 445.792969 434.921875 C 440.875 434.890625 435.960938 434.976562 431.046875 435.183594 C 426.136719 435.394531 421.230469 435.722656 416.335938 436.175781 C 411.4375 436.625 406.554688 437.195312 401.6875 437.886719 C 396.820312 438.578125 391.972656 439.390625 387.144531 440.320312 C 382.316406 441.25 377.511719 442.300781 372.734375 443.46875 C 367.960938 444.632812 363.214844 445.917969 358.5 447.320312 C 353.789062 448.722656 349.113281 450.238281 344.472656 451.871094 C 339.835938 453.5 335.238281 455.246094 330.6875 457.105469 C 326.136719 458.964844 321.632812 460.933594 317.175781 463.015625 C 312.722656 465.09375 308.320312 467.285156 303.972656 469.582031 C 299.625 471.878906 295.335938 474.28125 291.109375 476.789062 C 286.878906 479.300781 282.714844 481.910156 278.613281 484.625 C 274.515625 487.339844 270.484375 490.152344 266.523438 493.066406 C 262.5625 495.980469 258.675781 498.988281 254.863281 502.09375 C 251.046875 505.199219 247.3125 508.394531 243.660156 511.683594 C 240.003906 514.972656 236.433594 518.351562 232.941406 521.816406 C 229.453125 525.28125 226.054688 528.828125 222.738281 532.460938 C 219.425781 536.09375 216.203125 539.808594 213.074219 543.597656 C 209.941406 547.390625 206.90625 551.257812 203.964844 555.199219 C 201.027344 559.140625 198.183594 563.152344 195.441406 567.230469 C 192.699219 571.3125 190.0625 575.460938 187.523438 579.671875 C 184.984375 583.882812 182.554688 588.15625 180.226562 592.488281 C 177.898438 596.816406 175.679688 601.203125 173.570312 605.644531 C 171.457031 610.085938 169.457031 614.578125 167.566406 619.117188 C 165.679688 623.65625 163.902344 628.238281 162.238281 632.867188 C 160.574219 637.492188 159.027344 642.160156 157.59375 646.863281 C 156.160156 651.566406 154.84375 656.300781 153.644531 661.070312 C 152.445312 665.839844 151.363281 670.632812 150.398438 675.457031 C 149.4375 680.277344 148.589844 685.121094 147.867188 689.984375 C 147.140625 694.847656 146.539062 699.726562 146.054688 704.617188 C 145.570312 709.511719 145.207031 714.414062 144.964844 719.324219 C 144.722656 724.234375 144.601562 729.152344 144.601562 734.066406 C 144.601562 738.984375 144.722656 743.898438 144.964844 748.808594 C 145.207031 753.722656 145.570312 758.625 146.054688 763.515625 C 146.539062 768.410156 147.140625 773.289062 147.867188 778.152344 C 148.589844 783.015625 149.4375 787.855469 150.398438 792.679688 C 151.363281 797.5 152.445312 802.296875 153.644531 807.066406 C 154.84375 811.832031 156.160156 816.570312 157.59375 821.273438 C 159.027344 825.976562 160.574219 830.640625 162.238281 835.269531 C 163.902344 839.894531 165.679688 844.480469 167.566406 849.019531 C 169.457031 853.558594 171.457031 858.050781 173.570312 862.488281 C 175.679688 866.929688 177.898438 871.316406 180.226562 875.648438 C 182.554688 879.980469 184.984375 884.25 187.523438 888.464844 C 190.0625 892.675781 192.699219 896.820312 195.441406 900.902344 C 198.183594 904.984375 201.027344 908.996094 203.964844 912.9375 C 206.90625 916.878906 209.941406 920.746094 213.074219 924.535156 C 216.203125 928.328125 219.425781 932.039062 222.738281 935.671875 C 226.054688 939.304688 229.453125 942.855469 232.941406 946.320312 C 236.433594 949.785156 240.003906 953.160156 243.660156 956.449219 C 247.3125 959.738281 251.046875 962.9375 254.863281 966.042969 C 258.675781 969.144531 262.5625 972.15625 266.523438 975.066406 C 270.484375 977.980469 274.515625 980.796875 278.613281 983.507812 C 282.714844 986.222656 286.878906 988.835938 291.109375 991.34375 C 295.335938 993.851562 299.625 996.257812 303.972656 998.554688 C 308.320312 1000.851562 312.722656 1003.039062 317.175781 1005.121094 C 321.632812 1007.203125 326.136719 1009.171875 330.6875 1011.03125 C 335.238281 1012.886719 339.835938 1014.632812 344.472656 1016.265625 C 349.113281 1017.898438 353.789062 1019.414062 358.5 1020.816406 C 363.214844 1022.214844 367.960938 1023.5 372.734375 1024.667969 C 377.511719 1025.835938 382.316406 1026.882812 387.144531 1027.816406 C 391.972656 1028.746094 396.820312 1029.554688 401.6875 1030.246094 C 406.554688 1030.9375 411.4375 1031.511719 416.335938 1031.960938 C 421.230469 1032.410156 426.136719 1032.742188 431.046875 1032.949219 C 435.960938 1033.160156 440.875 1033.246094 445.792969 1033.210938 C 451.21875 1033.25 456.640625 1033.136719 462.058594 1032.878906 C 467.476562 1032.617188 472.886719 1032.210938 478.28125 1031.660156 C 483.679688 1031.105469 489.058594 1030.40625 494.417969 1029.5625 C 499.777344 1028.714844 505.109375 1027.722656 510.414062 1026.589844 C 515.71875 1025.453125 520.988281 1024.171875 526.222656 1022.75 C 531.457031 1021.328125 536.652344 1019.765625 541.800781 1018.058594 C 546.953125 1016.355469 552.050781 1014.511719 557.101562 1012.53125 C 562.152344 1010.546875 567.144531 1008.429688 572.082031 1006.175781 C 577.015625 1003.921875 581.886719 1001.535156 586.691406 999.015625 C 591.496094 996.5 596.230469 993.851562 600.890625 991.074219 C 605.550781 988.300781 610.132812 985.398438 614.636719 982.371094 C 619.140625 979.347656 623.558594 976.203125 627.890625 972.9375 C 632.222656 969.671875 636.464844 966.289062 640.613281 962.792969 C 644.761719 959.296875 648.808594 955.691406 652.761719 951.976562 C 656.714844 948.257812 660.5625 944.4375 664.308594 940.511719 C 668.050781 936.585938 671.6875 932.558594 675.210938 928.4375 L 719.632812 877.265625 L 620.480469 762.746094 L 562.003906 830.222656 C 558.425781 834.398438 554.632812 838.367188 550.625 842.132812 C 546.613281 845.898438 542.414062 849.433594 538.019531 852.742188 C 533.628906 856.050781 529.066406 859.109375 524.34375 861.921875 C 519.617188 864.734375 514.753906 867.28125 509.75 869.566406 C 504.746094 871.847656 499.636719 873.855469 494.414062 875.582031 C 489.195312 877.308594 483.894531 878.75 478.519531 879.902344 C 473.140625 881.054688 467.71875 881.910156 462.246094 882.472656 C 456.777344 883.035156 451.292969 883.300781 445.792969 883.265625 C 443.328125 883.300781 440.867188 883.269531 438.40625 883.183594 C 435.945312 883.09375 433.488281 882.945312 431.03125 882.734375 C 428.578125 882.523438 426.128906 882.253906 423.691406 881.921875 C 421.25 881.59375 418.816406 881.199219 416.398438 880.75 C 413.976562 880.296875 411.566406 879.785156 409.171875 879.214844 C 406.773438 878.644531 404.394531 878.011719 402.027344 877.324219 C 399.664062 876.636719 397.316406 875.890625 394.988281 875.082031 C 392.664062 874.277344 390.355469 873.417969 388.070312 872.496094 C 385.785156 871.578125 383.523438 870.601562 381.289062 869.570312 C 379.050781 868.539062 376.839844 867.453125 374.65625 866.3125 C 372.472656 865.171875 370.320312 863.980469 368.195312 862.730469 C 366.074219 861.484375 363.980469 860.183594 361.921875 858.832031 C 359.863281 857.484375 357.835938 856.082031 355.847656 854.628906 C 353.855469 853.179688 351.902344 851.679688 349.988281 850.132812 C 348.070312 848.582031 346.195312 846.988281 344.359375 845.347656 C 342.519531 843.707031 340.726562 842.023438 338.972656 840.292969 C 337.21875 838.5625 335.507812 836.789062 333.84375 834.976562 C 332.175781 833.160156 330.558594 831.308594 328.984375 829.414062 C 327.410156 827.519531 325.882812 825.585938 324.40625 823.613281 C 322.925781 821.644531 321.5 819.640625 320.121094 817.597656 C 318.742188 815.558594 317.414062 813.484375 316.136719 811.375 C 314.859375 809.269531 313.636719 807.132812 312.46875 804.964844 C 311.296875 802.796875 310.179688 800.601562 309.121094 798.378906 C 308.058594 796.15625 307.050781 793.910156 306.101562 791.636719 C 305.152344 789.363281 304.257812 787.070312 303.421875 784.753906 C 302.582031 782.4375 301.804688 780.101562 301.085938 777.746094 C 300.363281 775.390625 299.699219 773.019531 299.097656 770.632812 C 298.492188 768.242188 297.949219 765.839844 297.464844 763.425781 C 296.980469 761.011719 296.554688 758.585938 296.191406 756.148438 C 295.828125 753.714844 295.523438 751.269531 295.277344 748.820312 C 295.035156 746.367188 294.851562 743.914062 294.730469 741.453125 C 294.609375 738.992188 294.546875 736.53125 294.546875 734.066406 C 294.546875 731.605469 294.609375 729.144531 294.730469 726.683594 C 294.851562 724.222656 295.035156 721.765625 295.277344 719.316406 C 295.523438 716.863281 295.828125 714.421875 296.191406 711.984375 C 296.554688 709.550781 296.980469 707.125 297.464844 704.707031 C 297.949219 702.292969 298.492188 699.890625 299.097656 697.503906 C 299.699219 695.117188 300.363281 692.746094 301.085938 690.390625 C 301.804688 688.035156 302.582031 685.699219 303.421875 683.382812 C 304.257812 681.0625 305.152344 678.769531 306.101562 676.496094 C 307.050781 674.226562 308.058594 671.976562 309.121094 669.753906 C 310.179688 667.53125 311.296875 665.335938 312.46875 663.167969 C 313.636719 661.003906 314.859375 658.867188 316.136719 656.757812 C 317.414062 654.652344 318.742188 652.578125 320.121094 650.539062 C 321.5 648.496094 322.925781 646.492188 324.40625 644.519531 C 325.882812 642.550781 327.410156 640.617188 328.984375 638.722656 C 330.558594 636.828125 332.175781 634.972656 333.84375 633.160156 C 335.507812 631.34375 337.21875 629.574219 338.972656 627.84375 C 340.726562 626.113281 342.519531 624.425781 344.359375 622.785156 C 346.195312 621.144531 348.070312 619.550781 349.988281 618.003906 C 351.902344 616.457031 353.855469 614.957031 355.847656 613.503906 C 357.835938 612.054688 359.863281 610.652344 361.921875 609.300781 C 363.980469 607.949219 366.074219 606.652344 368.195312 605.402344 C 370.320312 604.15625 372.472656 602.960938 374.65625 601.820312 C 376.839844 600.679688 379.050781 599.59375 381.289062 598.5625 C 383.523438 597.53125 385.785156 596.558594 388.070312 595.636719 C 390.355469 594.71875 392.664062 593.855469 394.988281 593.050781 C 397.316406 592.246094 399.664062 591.5 402.027344 590.808594 C 404.394531 590.121094 406.773438 589.492188 409.171875 588.921875 C 411.566406 588.347656 413.976562 587.839844 416.398438 587.386719 C 418.816406 586.933594 421.25 586.542969 423.691406 586.210938 C 426.128906 585.878906 428.578125 585.609375 431.03125 585.398438 C 433.488281 585.191406 435.945312 585.039062 438.40625 584.953125 C 440.867188 584.863281 443.328125 584.835938 445.792969 584.871094 C 451.273438 584.832031 456.742188 585.09375 462.195312 585.652344 C 467.648438 586.210938 473.054688 587.0625 478.414062 588.210938 C 483.773438 589.355469 489.054688 590.789062 494.261719 592.511719 C 499.464844 594.234375 504.558594 596.230469 509.546875 598.507812 C 514.535156 600.78125 519.382812 603.320312 524.09375 606.125 C 528.804688 608.929688 533.347656 611.976562 537.726562 615.277344 C 542.105469 618.574219 546.292969 622.097656 550.289062 625.851562 C 554.28125 629.605469 558.0625 633.5625 561.628906 637.726562 C 778.785156 888.480469 675.609375 769.015625 813.539062 928.625 C 817.582031 933.441406 821.773438 938.125 826.109375 942.675781 C 830.445312 947.230469 834.921875 951.640625 839.535156 955.914062 C 844.148438 960.1875 848.894531 964.308594 853.765625 968.28125 C 858.640625 972.257812 863.632812 976.074219 868.746094 979.734375 C 873.859375 983.394531 879.078125 986.890625 884.410156 990.222656 C 889.742188 993.558594 895.175781 996.71875 900.707031 999.710938 C 906.238281 1002.703125 911.855469 1005.519531 917.5625 1008.15625 C 923.269531 1010.796875 929.054688 1013.253906 934.917969 1015.53125 C 940.777344 1017.804688 946.703125 1019.894531 952.699219 1021.800781 C 958.691406 1023.703125 964.738281 1025.417969 970.835938 1026.941406 C 976.9375 1028.464844 983.082031 1029.796875 989.265625 1030.9375 C 995.449219 1032.074219 1001.660156 1033.019531 1007.90625 1033.765625 C 1014.148438 1034.515625 1020.410156 1035.066406 1026.6875 1035.421875 C 1032.964844 1035.777344 1039.246094 1035.9375 1045.535156 1035.898438 C 1051.824219 1035.859375 1058.105469 1035.621094 1064.375 1035.191406 C 1070.648438 1034.757812 1076.902344 1034.128906 1083.136719 1033.300781 C 1089.371094 1032.476562 1095.570312 1031.457031 1101.742188 1030.242188 C 1107.910156 1029.023438 1114.035156 1027.617188 1120.117188 1026.019531 C 1126.199219 1024.417969 1132.222656 1022.628906 1138.191406 1020.652344 C 1144.160156 1018.675781 1150.0625 1016.511719 1155.894531 1014.164062 C 1161.726562 1011.816406 1167.480469 1009.285156 1173.15625 1006.578125 C 1178.828125 1003.867188 1184.414062 1000.984375 1189.90625 997.921875 C 1195.398438 994.863281 1200.792969 991.632812 1206.082031 988.234375 C 1211.371094 984.835938 1216.550781 981.277344 1221.617188 977.554688 C 1226.683594 973.828125 1231.628906 969.949219 1236.453125 965.917969 C 1241.277344 961.882812 1245.96875 957.703125 1250.53125 953.375 C 1255.089844 949.042969 1259.511719 944.578125 1263.792969 939.972656 C 1268.074219 935.367188 1272.203125 930.628906 1276.1875 925.765625 C 1280.171875 920.898438 1283.996094 915.914062 1287.667969 910.808594 C 1291.339844 905.703125 1294.84375 900.488281 1298.1875 895.160156 C 1301.53125 889.835938 1304.703125 884.410156 1307.707031 878.882812 C 1310.707031 873.359375 1313.535156 867.746094 1316.183594 862.042969 C 1318.832031 856.339844 1321.300781 850.5625 1323.589844 844.703125 C 1325.875 838.847656 1327.976562 832.925781 1329.890625 826.933594 C 1331.808594 820.945312 1333.53125 814.902344 1335.070312 808.804688 C 1336.605469 802.707031 1337.945312 796.566406 1339.097656 790.386719 C 1340.246094 784.203125 1341.203125 777.992188 1341.964844 771.75 C 1342.722656 765.507812 1343.289062 759.25 1343.65625 752.972656 C 1344.023438 746.695312 1344.191406 740.410156 1344.164062 734.125 C 1344.140625 727.835938 1343.914062 721.554688 1343.492188 715.28125 C 1343.074219 709.007812 1342.453125 702.753906 1341.640625 696.519531 C 1340.828125 690.28125 1339.820312 684.078125 1338.613281 677.90625 C 1337.410156 671.738281 1336.015625 665.609375 1334.429688 659.523438 C 1332.839844 653.441406 1331.0625 647.410156 1329.097656 641.4375 C 1327.128906 635.46875 1324.976562 629.5625 1322.640625 623.722656 C 1320.304688 617.886719 1317.785156 612.128906 1315.085938 606.449219 C 1312.390625 600.769531 1309.515625 595.179688 1306.464844 589.679688 C 1303.414062 584.183594 1300.195312 578.785156 1296.808594 573.488281 C 1293.421875 568.191406 1289.867188 563.003906 1286.15625 557.929688 C 1282.441406 552.855469 1278.570312 547.90625 1274.546875 543.074219 C 1270.523438 538.242188 1266.351562 533.542969 1262.03125 528.972656 C 1257.710938 524.40625 1253.25 519.976562 1248.652344 515.6875 C 1244.054688 511.398438 1239.328125 507.253906 1234.46875 503.261719 C 1229.613281 499.269531 1224.632812 495.433594 1219.535156 491.753906 C 1214.4375 488.074219 1209.226562 484.558594 1203.90625 481.207031 C 1198.589844 477.851562 1193.167969 474.671875 1187.648438 471.65625 C 1182.128906 468.644531 1176.523438 465.808594 1170.824219 463.148438 C 1165.128906 460.488281 1159.351562 458.007812 1153.5 455.710938 C 1147.648438 453.410156 1141.726562 451.300781 1135.742188 449.371094 C 1129.757812 447.445312 1123.714844 445.710938 1117.621094 444.160156 C 1111.527344 442.613281 1105.390625 441.257812 1099.210938 440.097656 C 1093.03125 438.933594 1086.820312 437.96875 1080.582031 437.195312 C 1074.339844 436.425781 1068.082031 435.847656 1061.804688 435.46875 C 1055.527344 435.089844 1049.246094 434.90625 1042.957031 434.921875 Z M 1042.957031 434.921875 " fill-opacity="1" fill-rule="nonzero"/></svg>