<svg xmlns="http://www.w3.org/2000/svg" xmlns:xlink="http://www.w3.org/1999/xlink" width="1500" zoomAndPan="magnify" viewBox="0 0 1125 374.999991" height="500" preserveAspectRatio="xMidYMid meet" version="1.0"><defs><g/></defs><path fill="#432dd7" d="M 246.363281 115.300781 C 243.875 115.28125 241.390625 115.402344 238.917969 115.65625 C 236.441406 115.910156 233.988281 116.296875 231.554688 116.816406 C 229.121094 117.335938 226.722656 117.988281 224.363281 118.769531 C 222 119.554688 219.6875 120.460938 217.425781 121.496094 C 215.160156 122.527344 212.960938 123.679688 210.824219 124.953125 C 208.683594 126.226562 206.621094 127.613281 204.636719 129.109375 C 202.648438 130.609375 200.75 132.210938 198.9375 133.914062 C 197.125 135.617188 195.410156 137.417969 193.792969 139.308594 L 183.613281 151.03125 L 206.332031 177.273438 L 219.734375 161.8125 C 221.378906 159.894531 223.210938 158.171875 225.230469 156.652344 C 227.246094 155.132812 229.40625 153.847656 231.707031 152.796875 C 234.007812 151.746094 236.390625 150.957031 238.863281 150.429688 C 241.335938 149.898438 243.835938 149.644531 246.363281 149.660156 C 247.492188 149.644531 248.617188 149.683594 249.746094 149.78125 C 250.871094 149.875 251.988281 150.027344 253.097656 150.234375 C 254.207031 150.441406 255.304688 150.703125 256.390625 151.019531 C 257.476562 151.335938 258.539062 151.703125 259.589844 152.125 C 260.636719 152.546875 261.660156 153.019531 262.664062 153.542969 C 263.664062 154.066406 264.636719 154.636719 265.582031 155.257812 C 266.523438 155.875 267.4375 156.539062 268.316406 157.25 C 269.195312 157.960938 270.035156 158.710938 270.839844 159.503906 C 271.644531 160.296875 272.40625 161.128906 273.128906 162 C 273.851562 162.867188 274.527344 163.769531 275.160156 164.707031 C 275.792969 165.640625 276.375 166.605469 276.914062 167.601562 C 277.449219 168.59375 277.9375 169.613281 278.371094 170.652344 C 278.808594 171.695312 279.191406 172.757812 279.519531 173.835938 C 279.851562 174.917969 280.128906 176.011719 280.351562 177.117188 C 280.574219 178.226562 280.738281 179.339844 280.851562 180.464844 C 280.964844 181.589844 281.019531 182.714844 281.019531 183.847656 C 281.019531 184.976562 280.964844 186.101562 280.851562 187.226562 C 280.738281 188.351562 280.574219 189.464844 280.351562 190.574219 C 280.128906 191.679688 279.851562 192.773438 279.519531 193.855469 C 279.191406 194.933594 278.808594 195.996094 278.371094 197.039062 C 277.9375 198.078125 277.449219 199.097656 276.914062 200.089844 C 276.375 201.085938 275.792969 202.050781 275.160156 202.988281 C 274.527344 203.921875 273.851562 204.824219 273.128906 205.695312 C 272.40625 206.5625 271.644531 207.394531 270.839844 208.1875 C 270.035156 208.980469 269.195312 209.730469 268.316406 210.441406 C 267.4375 211.152344 266.523438 211.816406 265.582031 212.433594 C 264.636719 213.054688 263.664062 213.625 262.664062 214.148438 C 261.660156 214.671875 260.636719 215.144531 259.589844 215.566406 C 258.539062 215.988281 257.476562 216.355469 256.390625 216.671875 C 255.304688 216.988281 254.207031 217.25 253.097656 217.457031 C 251.988281 217.664062 250.871094 217.816406 249.746094 217.910156 C 248.617188 218.007812 247.492188 218.046875 246.363281 218.035156 C 243.84375 218.050781 241.351562 217.796875 238.886719 217.269531 C 236.421875 216.742188 234.046875 215.953125 231.753906 214.910156 C 229.460938 213.863281 227.308594 212.582031 225.296875 211.066406 C 223.285156 209.550781 221.457031 207.835938 219.820312 205.921875 C 170.058594 148.464844 193.703125 175.839844 162.097656 139.265625 C 160.476562 137.375 158.761719 135.582031 156.945312 133.878906 C 155.132812 132.179688 153.230469 130.582031 151.242188 129.085938 C 149.253906 127.589844 147.191406 126.207031 145.054688 124.9375 C 142.917969 123.667969 140.714844 122.515625 138.453125 121.484375 C 136.191406 120.453125 133.878906 119.546875 131.515625 118.765625 C 129.15625 117.984375 126.757812 117.335938 124.328125 116.816406 C 121.894531 116.296875 119.441406 115.910156 116.96875 115.65625 C 114.492188 115.402344 112.011719 115.28125 109.527344 115.300781 C 108.398438 115.292969 107.273438 115.3125 106.148438 115.359375 C 105.023438 115.40625 103.898438 115.484375 102.777344 115.585938 C 101.652344 115.6875 100.535156 115.820312 99.417969 115.976562 C 98.304688 116.136719 97.191406 116.324219 96.085938 116.535156 C 94.980469 116.75 93.878906 116.988281 92.785156 117.257812 C 91.691406 117.523438 90.605469 117.820312 89.523438 118.140625 C 88.445312 118.460938 87.371094 118.808594 86.308594 119.183594 C 85.246094 119.554688 84.195312 119.957031 83.148438 120.382812 C 82.105469 120.808594 81.074219 121.257812 80.054688 121.734375 C 79.035156 122.210938 78.023438 122.714844 77.027344 123.242188 C 76.03125 123.765625 75.050781 124.316406 74.082031 124.894531 C 73.113281 125.46875 72.15625 126.066406 71.21875 126.6875 C 70.277344 127.308594 69.355469 127.953125 68.449219 128.621094 C 67.539062 129.289062 66.648438 129.980469 65.773438 130.691406 C 64.902344 131.402344 64.046875 132.132812 63.207031 132.886719 C 62.371094 133.640625 61.550781 134.414062 60.753906 135.210938 C 59.953125 136.003906 59.175781 136.816406 58.414062 137.648438 C 57.65625 138.480469 56.917969 139.332031 56.199219 140.203125 C 55.480469 141.070312 54.785156 141.957031 54.113281 142.859375 C 53.4375 143.761719 52.789062 144.679688 52.160156 145.617188 C 51.53125 146.550781 50.925781 147.503906 50.34375 148.46875 C 49.765625 149.433594 49.207031 150.410156 48.671875 151.402344 C 48.140625 152.394531 47.632812 153.402344 47.148438 154.417969 C 46.664062 155.4375 46.207031 156.464844 45.773438 157.503906 C 45.339844 158.546875 44.933594 159.597656 44.550781 160.65625 C 44.171875 161.714844 43.816406 162.785156 43.488281 163.863281 C 43.160156 164.941406 42.855469 166.027344 42.582031 167.117188 C 42.308594 168.210938 42.058594 169.308594 41.839844 170.414062 C 41.617188 171.519531 41.425781 172.628906 41.257812 173.746094 C 41.09375 174.859375 40.953125 175.976562 40.84375 177.097656 C 40.730469 178.21875 40.648438 179.34375 40.59375 180.46875 C 40.539062 181.59375 40.511719 182.71875 40.511719 183.847656 C 40.511719 184.972656 40.539062 186.097656 40.59375 187.222656 C 40.648438 188.347656 40.730469 189.472656 40.84375 190.59375 C 40.953125 191.714844 41.09375 192.832031 41.257812 193.949219 C 41.425781 195.0625 41.617188 196.171875 41.839844 197.277344 C 42.058594 198.382812 42.308594 199.480469 42.582031 200.574219 C 42.855469 201.664062 43.160156 202.75 43.488281 203.828125 C 43.816406 204.90625 44.171875 205.976562 44.550781 207.035156 C 44.933594 208.09375 45.339844 209.144531 45.773438 210.1875 C 46.207031 211.226562 46.664062 212.253906 47.148438 213.273438 C 47.632812 214.289062 48.140625 215.296875 48.671875 216.289062 C 49.207031 217.28125 49.765625 218.257812 50.34375 219.222656 C 50.925781 220.191406 51.53125 221.140625 52.160156 222.074219 C 52.789062 223.011719 53.4375 223.929688 54.113281 224.832031 C 54.785156 225.734375 55.480469 226.621094 56.199219 227.492188 C 56.917969 228.359375 57.65625 229.210938 58.414062 230.042969 C 59.175781 230.875 59.953125 231.6875 60.753906 232.480469 C 61.550781 233.277344 62.371094 234.050781 63.207031 234.804688 C 64.046875 235.558594 64.902344 236.289062 65.773438 237 C 66.648438 237.710938 67.539062 238.402344 68.449219 239.070312 C 69.355469 239.738281 70.277344 240.382812 71.21875 241.003906 C 72.15625 241.625 73.113281 242.222656 74.082031 242.800781 C 75.050781 243.375 76.03125 243.925781 77.027344 244.449219 C 78.023438 244.976562 79.035156 245.480469 80.054688 245.957031 C 81.074219 246.433594 82.105469 246.882812 83.148438 247.308594 C 84.195312 247.734375 85.246094 248.136719 86.308594 248.507812 C 87.371094 248.882812 88.445312 249.230469 89.523438 249.550781 C 90.605469 249.871094 91.691406 250.167969 92.785156 250.433594 C 93.878906 250.703125 94.980469 250.941406 96.085938 251.15625 C 97.191406 251.367188 98.304688 251.554688 99.417969 251.714844 C 100.535156 251.871094 101.652344 252.003906 102.777344 252.105469 C 103.898438 252.210938 105.023438 252.285156 106.148438 252.332031 C 107.273438 252.378906 108.398438 252.402344 109.527344 252.394531 C 112.015625 252.410156 114.496094 252.289062 116.972656 252.035156 C 119.445312 251.78125 121.898438 251.394531 124.332031 250.875 C 126.765625 250.355469 129.164062 249.703125 131.527344 248.921875 C 133.886719 248.140625 136.199219 247.230469 138.464844 246.199219 C 140.726562 245.164062 142.925781 244.011719 145.066406 242.738281 C 147.203125 241.464844 149.265625 240.078125 151.253906 238.582031 C 153.238281 237.082031 155.140625 235.480469 156.953125 233.777344 C 158.765625 232.074219 160.480469 230.273438 162.097656 228.382812 L 172.273438 216.660156 L 149.554688 190.417969 L 136.15625 205.878906 C 134.511719 207.796875 132.679688 209.519531 130.660156 211.039062 C 128.640625 212.558594 126.480469 213.84375 124.179688 214.894531 C 121.882812 215.945312 119.496094 216.734375 117.023438 217.261719 C 114.554688 217.792969 112.054688 218.050781 109.527344 218.035156 C 108.394531 218.046875 107.269531 218.007812 106.144531 217.910156 C 105.019531 217.816406 103.898438 217.664062 102.789062 217.457031 C 101.679688 217.25 100.582031 216.988281 99.496094 216.671875 C 98.414062 216.355469 97.347656 215.988281 96.300781 215.566406 C 95.25 215.144531 94.226562 214.671875 93.226562 214.148438 C 92.226562 213.625 91.25 213.054688 90.308594 212.433594 C 89.363281 211.816406 88.453125 211.152344 87.574219 210.441406 C 86.695312 209.730469 85.851562 208.980469 85.046875 208.1875 C 84.246094 207.394531 83.480469 206.5625 82.761719 205.695312 C 82.039062 204.824219 81.359375 203.921875 80.730469 202.984375 C 80.097656 202.050781 79.511719 201.085938 78.976562 200.089844 C 78.4375 199.097656 77.953125 198.078125 77.515625 197.039062 C 77.082031 195.996094 76.699219 194.933594 76.367188 193.855469 C 76.035156 192.773438 75.761719 191.679688 75.539062 190.574219 C 75.316406 189.464844 75.148438 188.351562 75.035156 187.226562 C 74.925781 186.101562 74.871094 184.976562 74.871094 183.847656 C 74.871094 182.714844 74.925781 181.589844 75.035156 180.464844 C 75.148438 179.339844 75.316406 178.226562 75.539062 177.117188 C 75.761719 176.011719 76.035156 174.917969 76.367188 173.835938 C 76.699219 172.757812 77.082031 171.695312 77.515625 170.652344 C 77.953125 169.613281 78.4375 168.59375 78.976562 167.601562 C 79.511719 166.605469 80.097656 165.640625 80.730469 164.707031 C 81.359375 163.769531 82.039062 162.867188 82.761719 162 C 83.480469 161.128906 84.246094 160.296875 85.046875 159.503906 C 85.851562 158.710938 86.695312 157.960938 87.574219 157.25 C 88.453125 156.539062 89.363281 155.875 90.308594 155.257812 C 91.25 154.636719 92.226562 154.066406 93.226562 153.542969 C 94.226562 153.019531 95.25 152.546875 96.300781 152.125 C 97.347656 151.703125 98.414062 151.335938 99.496094 151.019531 C 100.582031 150.703125 101.679688 150.441406 102.789062 150.234375 C 103.898438 150.027344 105.019531 149.875 106.144531 149.78125 C 107.269531 149.683594 108.394531 149.644531 109.527344 149.660156 C 112.046875 149.640625 114.535156 149.898438 117 150.421875 C 119.464844 150.949219 121.84375 151.738281 124.132812 152.78125 C 126.425781 153.828125 128.578125 155.109375 130.59375 156.625 C 132.605469 158.140625 134.429688 159.855469 136.070312 161.769531 C 185.828125 219.230469 162.1875 191.855469 193.792969 228.425781 C 194.71875 229.53125 195.679688 230.605469 196.671875 231.648438 C 197.667969 232.691406 198.691406 233.703125 199.75 234.679688 C 200.804688 235.660156 201.894531 236.605469 203.011719 237.515625 C 204.125 238.425781 205.269531 239.300781 206.441406 240.136719 C 207.613281 240.976562 208.808594 241.777344 210.03125 242.542969 C 211.253906 243.304688 212.5 244.03125 213.765625 244.714844 C 215.035156 245.402344 216.320312 246.046875 217.628906 246.652344 C 218.9375 247.257812 220.261719 247.820312 221.605469 248.339844 C 222.949219 248.863281 224.304688 249.339844 225.679688 249.777344 C 227.050781 250.214844 228.4375 250.605469 229.835938 250.957031 C 231.234375 251.304688 232.640625 251.609375 234.058594 251.871094 C 235.476562 252.132812 236.898438 252.347656 238.328125 252.519531 C 239.761719 252.691406 241.195312 252.816406 242.632812 252.898438 C 244.070312 252.980469 245.511719 253.015625 246.953125 253.007812 C 248.394531 253 249.832031 252.945312 251.269531 252.847656 C 252.707031 252.746094 254.140625 252.601562 255.570312 252.414062 C 256.996094 252.222656 258.417969 251.988281 259.832031 251.710938 C 261.246094 251.433594 262.648438 251.109375 264.042969 250.746094 C 265.4375 250.378906 266.816406 249.96875 268.183594 249.515625 C 269.550781 249.0625 270.902344 248.566406 272.242188 248.027344 C 273.578125 247.488281 274.894531 246.910156 276.195312 246.289062 C 277.496094 245.667969 278.773438 245.007812 280.035156 244.304688 C 281.292969 243.605469 282.527344 242.867188 283.742188 242.085938 C 284.953125 241.308594 286.140625 240.492188 287.300781 239.640625 C 288.460938 238.785156 289.59375 237.898438 290.699219 236.972656 C 291.804688 236.046875 292.878906 235.089844 293.925781 234.097656 C 294.972656 233.105469 295.984375 232.082031 296.964844 231.027344 C 297.945312 229.972656 298.890625 228.886719 299.804688 227.773438 C 300.71875 226.65625 301.59375 225.515625 302.433594 224.34375 C 303.277344 223.175781 304.078125 221.980469 304.847656 220.757812 C 305.613281 219.539062 306.339844 218.296875 307.027344 217.03125 C 307.714844 215.761719 308.363281 214.476562 308.96875 213.171875 C 309.578125 211.863281 310.140625 210.539062 310.667969 209.199219 C 311.191406 207.855469 311.671875 206.5 312.109375 205.125 C 312.550781 203.753906 312.945312 202.367188 313.296875 200.972656 C 313.648438 199.574219 313.957031 198.167969 314.21875 196.75 C 314.484375 195.335938 314.703125 193.910156 314.875 192.480469 C 315.050781 191.050781 315.179688 189.617188 315.265625 188.175781 C 315.347656 186.738281 315.386719 185.300781 315.382812 183.859375 C 315.375 182.417969 315.324219 180.980469 315.226562 179.542969 C 315.132812 178.105469 314.988281 176.671875 314.804688 175.242188 C 314.617188 173.8125 314.386719 172.390625 314.109375 170.976562 C 313.832031 169.5625 313.515625 168.160156 313.148438 166.765625 C 312.785156 165.371094 312.378906 163.988281 311.929688 162.621094 C 311.476562 161.253906 310.984375 159.898438 310.449219 158.5625 C 309.914062 157.222656 309.335938 155.90625 308.71875 154.601562 C 308.101562 153.300781 307.441406 152.019531 306.742188 150.761719 C 306.042969 149.5 305.304688 148.265625 304.53125 147.050781 C 303.753906 145.835938 302.941406 144.648438 302.089844 143.484375 C 301.238281 142.324219 300.351562 141.1875 299.429688 140.082031 C 298.507812 138.972656 297.550781 137.898438 296.5625 136.851562 C 295.570312 135.804688 294.550781 134.789062 293.496094 133.804688 C 292.441406 132.824219 291.359375 131.875 290.246094 130.957031 C 289.132812 130.042969 287.992188 129.164062 286.824219 128.320312 C 285.65625 127.476562 284.460938 126.671875 283.242188 125.90625 C 282.023438 125.136719 280.78125 124.40625 279.515625 123.714844 C 278.253906 123.027344 276.96875 122.375 275.660156 121.765625 C 274.355469 121.15625 273.03125 120.589844 271.691406 120.0625 C 270.351562 119.535156 268.996094 119.050781 267.621094 118.609375 C 266.25 118.167969 264.867188 117.769531 263.46875 117.414062 C 262.074219 117.0625 260.667969 116.75 259.25 116.484375 C 257.835938 116.21875 256.414062 115.996094 254.984375 115.820312 C 253.554688 115.644531 252.117188 115.511719 250.679688 115.425781 C 249.242188 115.335938 247.804688 115.296875 246.363281 115.300781 Z M 246.363281 115.300781 " fill-opacity="1" fill-rule="nonzero"/><g fill="#ffffff" fill-opacity="1"><g transform="translate(358.898428, 256.124983)"><g><path d="M 13.203125 0 L 13.203125 -140 L 101.203125 -140 L 101.203125 -116 L 39.59375 -116 L 39.59375 -82.203125 L 96.40625 -82.203125 L 96.40625 -58.203125 L 39.59375 -58.203125 L 39.59375 0 Z M 13.203125 0 "/></g></g></g><g fill="#ffffff" fill-opacity="1"><g transform="translate(465.69559, 256.124983)"><g><path d="M 14 0 L 14 -99.203125 L 39.203125 -99.203125 L 39.203125 0 Z M 26.609375 -110.796875 C 22.078125 -110.796875 18.242188 -112.257812 15.109375 -115.1875 C 11.972656 -118.125 10.40625 -121.992188 10.40625 -126.796875 C 10.40625 -131.597656 11.972656 -135.460938 15.109375 -138.390625 C 18.242188 -141.328125 22.078125 -142.796875 26.609375 -142.796875 C 31.273438 -142.796875 35.140625 -141.328125 38.203125 -138.390625 C 41.273438 -135.460938 42.8125 -131.597656 42.8125 -126.796875 C 42.8125 -121.992188 41.273438 -118.125 38.203125 -115.1875 C 35.140625 -112.257812 31.273438 -110.796875 26.609375 -110.796875 Z M 26.609375 -110.796875 "/></g></g></g><g fill="#ffffff" fill-opacity="1"><g transform="translate(518.894168, 256.124983)"><g><path d="M 54 2.796875 C 46.132812 2.796875 38.765625 0.832031 31.890625 -3.09375 C 25.023438 -7.03125 19.523438 -12.796875 15.390625 -20.390625 C 11.265625 -27.992188 9.203125 -37.195312 9.203125 -48 L 9.203125 -51.203125 C 9.203125 -62.003906 11.265625 -71.203125 15.390625 -78.796875 C 19.523438 -86.398438 24.992188 -92.164062 31.796875 -96.09375 C 38.597656 -100.03125 46 -102 54 -102 C 60 -102 65.03125 -101.296875 69.09375 -99.890625 C 73.164062 -98.492188 76.46875 -96.726562 79 -94.59375 C 81.53125 -92.46875 83.460938 -90.203125 84.796875 -87.796875 L 88.40625 -87.796875 L 88.40625 -140 L 113.59375 -140 L 113.59375 0 L 88.796875 0 L 88.796875 -12 L 85.203125 -12 C 82.929688 -8.269531 79.425781 -4.867188 74.6875 -1.796875 C 69.957031 1.261719 63.0625 2.796875 54 2.796875 Z M 61.59375 -19.203125 C 69.332031 -19.203125 75.800781 -21.703125 81 -26.703125 C 86.195312 -31.703125 88.796875 -39 88.796875 -48.59375 L 88.796875 -50.59375 C 88.796875 -60.195312 86.226562 -67.5 81.09375 -72.5 C 75.96875 -77.5 69.46875 -80 61.59375 -80 C 53.863281 -80 47.398438 -77.5 42.203125 -72.5 C 37.003906 -67.5 34.40625 -60.195312 34.40625 -50.59375 L 34.40625 -48.59375 C 34.40625 -39 37.003906 -31.703125 42.203125 -26.703125 C 47.398438 -21.703125 53.863281 -19.203125 61.59375 -19.203125 Z M 61.59375 -19.203125 "/></g></g></g><g fill="#ffffff" fill-opacity="1"><g transform="translate(646.490722, 256.124983)"><g><path d="M 59.203125 2.796875 C 49.335938 2.796875 40.632812 0.695312 33.09375 -3.5 C 25.5625 -7.695312 19.695312 -13.628906 15.5 -21.296875 C 11.300781 -28.960938 9.203125 -38 9.203125 -48.40625 L 9.203125 -50.796875 C 9.203125 -61.203125 11.265625 -70.238281 15.390625 -77.90625 C 19.523438 -85.570312 25.328125 -91.503906 32.796875 -95.703125 C 40.265625 -99.898438 48.929688 -102 58.796875 -102 C 68.535156 -102 77.003906 -99.832031 84.203125 -95.5 C 91.398438 -91.164062 97 -85.164062 101 -77.5 C 105 -69.832031 107 -60.929688 107 -50.796875 L 107 -42.203125 L 34.796875 -42.203125 C 35.066406 -35.398438 37.597656 -29.863281 42.390625 -25.59375 C 47.191406 -21.332031 53.0625 -19.203125 60 -19.203125 C 67.0625 -19.203125 72.257812 -20.734375 75.59375 -23.796875 C 78.925781 -26.867188 81.460938 -30.269531 83.203125 -34 L 103.796875 -23.203125 C 101.929688 -19.734375 99.234375 -15.960938 95.703125 -11.890625 C 92.171875 -7.828125 87.46875 -4.363281 81.59375 -1.5 C 75.726562 1.363281 68.265625 2.796875 59.203125 2.796875 Z M 35 -61 L 81.40625 -61 C 80.863281 -66.726562 78.5625 -71.328125 74.5 -74.796875 C 70.4375 -78.265625 65.132812 -80 58.59375 -80 C 51.800781 -80 46.40625 -78.265625 42.40625 -74.796875 C 38.40625 -71.328125 35.9375 -66.726562 35 -61 Z M 35 -61 "/></g></g></g><g fill="#ffffff" fill-opacity="1"><g transform="translate(761.887626, 256.124983)"><g><path d="M 14 0 L 14 -140 L 39.203125 -140 L 39.203125 0 Z M 14 0 "/></g></g></g><g fill="#ffffff" fill-opacity="1"><g transform="translate(815.086216, 256.124983)"><g><path d="M 14 0 L 14 -99.203125 L 39.203125 -99.203125 L 39.203125 0 Z M 26.609375 -110.796875 C 22.078125 -110.796875 18.242188 -112.257812 15.109375 -115.1875 C 11.972656 -118.125 10.40625 -121.992188 10.40625 -126.796875 C 10.40625 -131.597656 11.972656 -135.460938 15.109375 -138.390625 C 18.242188 -141.328125 22.078125 -142.796875 26.609375 -142.796875 C 31.273438 -142.796875 35.140625 -141.328125 38.203125 -138.390625 C 41.273438 -135.460938 42.8125 -131.597656 42.8125 -126.796875 C 42.8125 -121.992188 41.273438 -118.125 38.203125 -115.1875 C 35.140625 -112.257812 31.273438 -110.796875 26.609375 -110.796875 Z M 26.609375 -110.796875 "/></g></g></g><g fill="#ffffff" fill-opacity="1"><g transform="translate(868.284806, 256.124983)"><g><path d="M 10.40625 0 L 10.40625 -30 L 64.796875 -75.203125 L 64.796875 -78.40625 L 12.40625 -78.40625 L 12.40625 -99.203125 L 92.40625 -99.203125 L 92.40625 -69.203125 L 38 -24 L 38 -20.796875 L 94 -20.796875 L 94 0 Z M 10.40625 0 "/></g></g></g><g fill="#ffffff" fill-opacity="1"><g transform="translate(971.882029, 256.124983)"><g><path d="M 44.796875 2.796875 C 37.734375 2.796875 31.398438 1.566406 25.796875 -0.890625 C 20.203125 -3.359375 15.769531 -6.957031 12.5 -11.6875 C 9.226562 -16.425781 7.59375 -22.195312 7.59375 -29 C 7.59375 -35.800781 9.226562 -41.5 12.5 -46.09375 C 15.769531 -50.695312 20.300781 -54.164062 26.09375 -56.5 C 31.894531 -58.832031 38.53125 -60 46 -60 L 73.203125 -60 L 73.203125 -65.59375 C 73.203125 -70.257812 71.734375 -74.09375 68.796875 -77.09375 C 65.867188 -80.09375 61.203125 -81.59375 54.796875 -81.59375 C 48.535156 -81.59375 43.867188 -80.160156 40.796875 -77.296875 C 37.734375 -74.429688 35.734375 -70.734375 34.796875 -66.203125 L 11.59375 -74 C 13.195312 -79.0625 15.765625 -83.691406 19.296875 -87.890625 C 22.828125 -92.097656 27.5625 -95.5 33.5 -98.09375 C 39.4375 -100.695312 46.671875 -102 55.203125 -102 C 68.265625 -102 78.59375 -98.734375 86.1875 -92.203125 C 93.789062 -85.671875 97.59375 -76.203125 97.59375 -63.796875 L 97.59375 -26.796875 C 97.59375 -22.796875 99.460938 -20.796875 103.203125 -20.796875 L 111.203125 -20.796875 L 111.203125 0 L 94.40625 0 C 89.46875 0 85.398438 -1.195312 82.203125 -3.59375 C 79.003906 -6 77.40625 -9.203125 77.40625 -13.203125 L 77.40625 -13.40625 L 73.59375 -13.40625 C 73.0625 -11.800781 71.863281 -9.695312 70 -7.09375 C 68.132812 -4.5 65.203125 -2.203125 61.203125 -0.203125 C 57.203125 1.796875 51.734375 2.796875 44.796875 2.796875 Z M 49.203125 -17.59375 C 56.265625 -17.59375 62.03125 -19.5625 66.5 -23.5 C 70.96875 -27.4375 73.203125 -32.671875 73.203125 -39.203125 L 73.203125 -41.203125 L 47.796875 -41.203125 C 43.128906 -41.203125 39.460938 -40.203125 36.796875 -38.203125 C 34.128906 -36.203125 32.796875 -33.398438 32.796875 -29.796875 C 32.796875 -26.203125 34.195312 -23.269531 37 -21 C 39.800781 -18.726562 43.867188 -17.59375 49.203125 -17.59375 Z M 49.203125 -17.59375 "/></g></g></g></svg>