<svg xmlns="http://www.w3.org/2000/svg" xmlns:xlink="http://www.w3.org/1999/xlink" width="500" zoomAndPan="magnify" viewBox="0 0 375 374.999991" height="500" preserveAspectRatio="xMidYMid meet" version="1.0"><defs><clipPath id="0d19da8004"><path d="M 19 32 L 123 32 L 123 370 L 19 370 Z M 19 32 " clip-rule="nonzero"/></clipPath><clipPath id="4445b0e507"><path d="M 45.839844 31.085938 L 124.253906 37.628906 L 96.433594 371.203125 L 18.019531 364.664062 Z M 45.839844 31.085938 " clip-rule="nonzero"/></clipPath><clipPath id="1b5fd1253a"><path d="M 62.28125 32.457031 L 107.8125 36.253906 C 116.894531 37.011719 123.640625 44.988281 122.882812 54.070312 L 97.828125 354.515625 C 97.070312 363.59375 89.09375 370.34375 80.011719 369.585938 L 34.480469 365.789062 C 25.398438 365.03125 18.652344 357.054688 19.410156 347.972656 L 44.46875 47.53125 C 45.226562 38.449219 53.199219 31.699219 62.28125 32.457031 Z M 62.28125 32.457031 " clip-rule="nonzero"/></clipPath><clipPath id="200e65df58"><path d="M 0 0 L 104 0 L 104 338 L 0 338 Z M 0 0 " clip-rule="nonzero"/></clipPath><clipPath id="926617da76"><path d="M 26.839844 -0.914062 L 105.253906 5.628906 L 77.433594 339.203125 L -0.980469 332.664062 Z M 26.839844 -0.914062 " clip-rule="nonzero"/></clipPath><clipPath id="d2c379c8e7"><path d="M 43.28125 0.457031 L 88.8125 4.253906 C 97.894531 5.011719 104.640625 12.988281 103.882812 22.070312 L 78.828125 322.515625 C 78.070312 331.59375 70.09375 338.34375 61.011719 337.585938 L 15.480469 333.789062 C 6.398438 333.03125 -0.347656 325.054688 0.410156 315.972656 L 25.46875 15.53125 C 26.226562 6.449219 34.199219 -0.300781 43.28125 0.457031 Z M 43.28125 0.457031 " clip-rule="nonzero"/></clipPath><clipPath id="8b9fa6d4ad"><rect x="0" width="104" y="0" height="338"/></clipPath><clipPath id="daa9363a89"><path d="M 0 0 L 292 0 L 292 75 L 0 75 Z M 0 0 " clip-rule="nonzero"/></clipPath><clipPath id="8c40790408"><path d="M 3.382812 75.601562 L 0 14.847656 L 289.296875 -1.265625 L 292.679688 59.488281 Z M 3.382812 75.601562 " clip-rule="nonzero"/></clipPath><clipPath id="f586c2d1e7"><path d="M 2.464844 59.128906 L 0.917969 31.320312 C 0.410156 22.222656 7.375 14.4375 16.472656 13.929688 L 272.699219 -0.339844 C 281.800781 -0.847656 289.585938 6.117188 290.09375 15.214844 L 291.640625 43.023438 C 292.148438 52.121094 285.183594 59.90625 276.085938 60.414062 L 19.859375 74.683594 C 10.757812 75.191406 2.972656 68.226562 2.464844 59.128906 Z M 2.464844 59.128906 " clip-rule="nonzero"/></clipPath><clipPath id="b1dfadfafb"><path d="M 0.238281 0 L 292 0 L 292 75 L 0.238281 75 Z M 0.238281 0 " clip-rule="nonzero"/></clipPath><clipPath id="d32859695a"><path d="M 3.382812 75.601562 L 0 14.847656 L 289.296875 -1.265625 L 292.679688 59.488281 Z M 3.382812 75.601562 " clip-rule="nonzero"/></clipPath><clipPath id="79ed71e9cb"><path d="M 2.464844 59.128906 L 0.917969 31.320312 C 0.410156 22.222656 7.375 14.4375 16.472656 13.929688 L 272.699219 -0.339844 C 281.800781 -0.847656 289.585938 6.117188 290.09375 15.214844 L 291.640625 43.023438 C 292.148438 52.121094 285.183594 59.90625 276.085938 60.414062 L 19.859375 74.683594 C 10.757812 75.191406 2.972656 68.226562 2.464844 59.128906 Z M 2.464844 59.128906 " clip-rule="nonzero"/></clipPath><clipPath id="c5c1c91997"><rect x="0" width="292" y="0" height="75"/></clipPath><clipPath id="bdaa2ecd15"><path d="M 1 179 L 220 179 L 220 251 L 1 251 Z M 1 179 " clip-rule="nonzero"/></clipPath><clipPath id="2fe6d2fe5e"><path d="M 4.039062 251.726562 L 1.058594 188.941406 L 217.125 178.6875 L 220.105469 241.472656 Z M 4.039062 251.726562 " clip-rule="nonzero"/></clipPath><clipPath id="100c0c18ce"><path d="M 3.253906 235.246094 L 1.839844 205.421875 C 1.40625 196.320312 8.4375 188.589844 17.539062 188.160156 L 200.628906 179.46875 C 209.734375 179.035156 217.460938 186.066406 217.894531 195.167969 L 219.308594 224.992188 C 219.742188 234.09375 212.714844 241.820312 203.609375 242.253906 L 20.519531 250.945312 C 11.417969 251.375 3.6875 244.347656 3.253906 235.246094 Z M 3.253906 235.246094 " clip-rule="nonzero"/></clipPath><clipPath id="16b4c9c50b"><path d="M 0.199219 0 L 218.839844 0 L 218.839844 72 L 0.199219 72 Z M 0.199219 0 " clip-rule="nonzero"/></clipPath><clipPath id="e49597f424"><path d="M 3.039062 72.726562 L 0.0585938 9.941406 L 216.125 -0.3125 L 219.105469 62.472656 Z M 3.039062 72.726562 " clip-rule="nonzero"/></clipPath><clipPath id="d277deaaae"><path d="M 2.253906 56.246094 L 0.839844 26.421875 C 0.40625 17.320312 7.4375 9.589844 16.539062 9.160156 L 199.628906 0.46875 C 208.734375 0.0351562 216.460938 7.066406 216.894531 16.167969 L 218.308594 45.992188 C 218.742188 55.09375 211.714844 62.820312 202.609375 63.253906 L 19.519531 71.945312 C 10.417969 72.375 2.6875 65.347656 2.253906 56.246094 Z M 2.253906 56.246094 " clip-rule="nonzero"/></clipPath><clipPath id="de736d28d8"><rect x="0" width="219" y="0" height="72"/></clipPath><clipPath id="63b2574568"><path d="M 211 267 L 370 267 L 370 311 L 211 311 Z M 211 267 " clip-rule="nonzero"/></clipPath><clipPath id="d15e59360d"><path d="M 213.363281 310.980469 L 211.289062 277.074219 L 368.230469 267.472656 L 370.304688 301.378906 Z M 213.363281 310.980469 " clip-rule="nonzero"/></clipPath><clipPath id="a4132db135"><path d="M 212.859375 302.746094 L 211.792969 285.308594 C 211.515625 280.761719 214.976562 276.847656 219.523438 276.570312 L 359.988281 267.980469 C 364.535156 267.699219 368.449219 271.160156 368.726562 275.710938 L 369.792969 293.144531 C 370.070312 297.691406 366.609375 301.605469 362.0625 301.882812 L 221.597656 310.476562 C 217.050781 310.753906 213.136719 307.292969 212.859375 302.746094 Z M 212.859375 302.746094 " clip-rule="nonzero"/></clipPath><clipPath id="ad5166b1c9"><path d="M 0.441406 0.601562 L 159 0.601562 L 159 43.800781 L 0.441406 43.800781 Z M 0.441406 0.601562 " clip-rule="nonzero"/></clipPath><clipPath id="52a37df1b2"><path d="M 2.363281 43.980469 L 0.289062 10.074219 L 157.230469 0.472656 L 159.304688 34.378906 Z M 2.363281 43.980469 " clip-rule="nonzero"/></clipPath><clipPath id="9e143d200d"><path d="M 1.859375 35.746094 L 0.792969 18.308594 C 0.515625 13.761719 3.976562 9.847656 8.523438 9.570312 L 148.988281 0.980469 C 153.535156 0.699219 157.449219 4.160156 157.726562 8.710938 L 158.792969 26.144531 C 159.070312 30.691406 155.609375 34.605469 151.0625 34.882812 L 10.597656 43.476562 C 6.050781 43.753906 2.136719 40.292969 1.859375 35.746094 Z M 1.859375 35.746094 " clip-rule="nonzero"/></clipPath><clipPath id="4f380030b6"><rect x="0" width="159" y="0" height="44"/></clipPath><clipPath id="819baa744b"><path d="M 265 223 L 316 223 L 316 356 L 265 356 Z M 265 223 " clip-rule="nonzero"/></clipPath><clipPath id="cf9d69ff5c"><path d="M 274.304688 222.582031 L 316.195312 225.445312 L 307.273438 356.027344 L 265.382812 353.167969 Z M 274.304688 222.582031 " clip-rule="nonzero"/></clipPath><clipPath id="307fcf35d9"><path d="M 282.535156 223.144531 L 307.964844 224.882812 C 312.507812 225.191406 315.941406 229.128906 315.632812 233.675781 L 307.847656 347.648438 C 307.535156 352.195312 303.601562 355.628906 299.054688 355.316406 L 273.625 353.582031 C 269.078125 353.269531 265.644531 349.332031 265.957031 344.789062 L 273.742188 230.8125 C 274.050781 226.269531 277.988281 222.835938 282.535156 223.144531 Z M 282.535156 223.144531 " clip-rule="nonzero"/></clipPath><clipPath id="5af238a591"><path d="M 0.441406 0 L 51 0 L 51 132.679688 L 0.441406 132.679688 Z M 0.441406 0 " clip-rule="nonzero"/></clipPath><clipPath id="1329fcff46"><path d="M 9.304688 -0.417969 L 51.195312 2.445312 L 42.273438 133.027344 L 0.382812 130.167969 Z M 9.304688 -0.417969 " clip-rule="nonzero"/></clipPath><clipPath id="3eb9fbe202"><path d="M 17.535156 0.144531 L 42.964844 1.882812 C 47.507812 2.191406 50.941406 6.128906 50.632812 10.675781 L 42.847656 124.648438 C 42.535156 129.195312 38.601562 132.628906 34.054688 132.316406 L 8.625 130.582031 C 4.078125 130.269531 0.644531 126.332031 0.957031 121.789062 L 8.742188 7.8125 C 9.050781 3.269531 12.988281 -0.164062 17.535156 0.144531 Z M 17.535156 0.144531 " clip-rule="nonzero"/></clipPath><clipPath id="402cefdb10"><rect x="0" width="51" y="0" height="133"/></clipPath><clipPath id="859db94381"><rect x="0" width="371" y="0" height="372"/></clipPath></defs><g transform="matrix(1, 0, 0, 1, 0, 0)"><g clip-path="url(#859db94381)"><g clip-path="url(#0d19da8004)"><g clip-path="url(#4445b0e507)"><g clip-path="url(#1b5fd1253a)"><g transform="matrix(1, 0, 0, 1, 19, 32)"><g clip-path="url(#8b9fa6d4ad)"><g clip-path="url(#200e65df58)"><g clip-path="url(#926617da76)"><g clip-path="url(#d2c379c8e7)"><path fill="#4f39f6" d="M 26.839844 -0.914062 L 105.253906 5.628906 L 77.460938 338.898438 L -0.957031 332.359375 Z M 26.839844 -0.914062 " fill-opacity="1" fill-rule="nonzero"/></g></g></g></g></g></g></g></g><g clip-path="url(#daa9363a89)"><g clip-path="url(#8c40790408)"><g clip-path="url(#f586c2d1e7)"><g><g clip-path="url(#c5c1c91997)"><g clip-path="url(#b1dfadfafb)"><g clip-path="url(#d32859695a)"><g clip-path="url(#79ed71e9cb)"><path fill="#4f39f6" d="M 3.382812 75.601562 L 0 14.847656 L 289.058594 -1.253906 L 292.441406 59.503906 Z M 3.382812 75.601562 " fill-opacity="1" fill-rule="nonzero"/></g></g></g></g></g></g></g></g><g clip-path="url(#bdaa2ecd15)"><g clip-path="url(#2fe6d2fe5e)"><g clip-path="url(#100c0c18ce)"><g transform="matrix(1, 0, 0, 1, 1, 179)"><g clip-path="url(#de736d28d8)"><g clip-path="url(#16b4c9c50b)"><g clip-path="url(#e49597f424)"><g clip-path="url(#d277deaaae)"><path fill="#4f39f6" d="M 3.039062 72.726562 L 0.0585938 9.941406 L 216.125 -0.3125 L 219.105469 62.472656 Z M 3.039062 72.726562 " fill-opacity="1" fill-rule="nonzero"/></g></g></g></g></g></g></g></g><g clip-path="url(#63b2574568)"><g clip-path="url(#d15e59360d)"><g clip-path="url(#a4132db135)"><g transform="matrix(1, 0, 0, 1, 211, 267)"><g clip-path="url(#4f380030b6)"><g clip-path="url(#ad5166b1c9)"><g clip-path="url(#52a37df1b2)"><g clip-path="url(#9e143d200d)"><path fill="#ffffff" d="M 2.363281 43.980469 L 0.289062 10.074219 L 157.230469 0.472656 L 159.304688 34.378906 Z M 2.363281 43.980469 " fill-opacity="1" fill-rule="nonzero"/></g></g></g></g></g></g></g></g><g clip-path="url(#819baa744b)"><g clip-path="url(#cf9d69ff5c)"><g clip-path="url(#307fcf35d9)"><g transform="matrix(1, 0, 0, 1, 265, 223)"><g clip-path="url(#402cefdb10)"><g clip-path="url(#5af238a591)"><g clip-path="url(#1329fcff46)"><g clip-path="url(#3eb9fbe202)"><path fill="#ffffff" d="M 9.304688 -0.417969 L 51.195312 2.445312 L 42.285156 132.863281 L 0.394531 130.003906 Z M 9.304688 -0.417969 " fill-opacity="1" fill-rule="nonzero"/></g></g></g></g></g></g></g></g></g></g></svg>