<svg xmlns="http://www.w3.org/2000/svg" xmlns:xlink="http://www.w3.org/1999/xlink" width="300" zoomAndPan="magnify" viewBox="0 0 224.87999 74.999997" height="100" preserveAspectRatio="xMidYMid meet" version="1.0"><defs><g/><clipPath id="b20d9fdf07"><path d="M 7 0.0195312 L 59 0.0195312 L 59 68 L 7 68 Z M 7 0.0195312 " clip-rule="nonzero"/></clipPath><clipPath id="01a81d9e5e"><path d="M 4 6 L 22 6 L 22 67 L 4 67 Z M 4 6 " clip-rule="nonzero"/></clipPath><clipPath id="d6bf9cf77a"><path d="M 8.625 6.214844 L 21.929688 7.324219 L 16.910156 67.507812 L 3.605469 66.398438 Z M 8.625 6.214844 " clip-rule="nonzero"/></clipPath><clipPath id="b6f55ecefc"><path d="M 15.277344 6.769531 C 18.953125 7.078125 21.679688 10.304688 21.375 13.976562 L 17.46875 60.832031 C 17.160156 64.503906 13.933594 67.234375 10.261719 66.929688 C 6.585938 66.621094 3.855469 63.394531 4.164062 59.722656 L 8.070312 12.867188 C 8.375 9.195312 11.601562 6.464844 15.277344 6.769531 Z M 15.277344 6.769531 " clip-rule="nonzero"/></clipPath><clipPath id="4f443be444"><path d="M 0 0.257812 L 17.785156 0.257812 L 17.785156 61 L 0 61 Z M 0 0.257812 " clip-rule="nonzero"/></clipPath><clipPath id="3db304be26"><path d="M 4.625 0.214844 L 17.929688 1.324219 L 12.910156 61.507812 L -0.394531 60.398438 Z M 4.625 0.214844 " clip-rule="nonzero"/></clipPath><clipPath id="5487e531e8"><path d="M 11.277344 0.769531 C 14.953125 1.078125 17.679688 4.304688 17.375 7.976562 L 13.46875 54.832031 C 13.160156 58.503906 9.933594 61.234375 6.261719 60.929688 C 2.585938 60.621094 -0.144531 57.394531 0.164062 53.722656 L 4.070312 6.867188 C 4.375 3.195312 7.601562 0.464844 11.277344 0.769531 Z M 11.277344 0.769531 " clip-rule="nonzero"/></clipPath><clipPath id="37c90c4c3f"><rect x="0" width="18" y="0" height="61"/></clipPath><clipPath id="2a6028e723"><path d="M 0.4375 0.261719 L 51 0.261719 L 51 14 L 0.4375 14 Z M 0.4375 0.261719 " clip-rule="nonzero"/></clipPath><clipPath id="47c13abe70"><path d="M 1.105469 14.144531 L 0.496094 3.179688 L 50.351562 0.40625 L 50.960938 11.371094 Z M 1.105469 14.144531 " clip-rule="nonzero"/></clipPath><clipPath id="7499babc17"><path d="M 0.800781 8.664062 C 0.71875 7.210938 1.21875 5.78125 2.191406 4.699219 C 3.160156 3.613281 4.523438 2.957031 5.976562 2.875 L 44.867188 0.710938 C 46.320312 0.628906 47.746094 1.128906 48.832031 2.101562 C 49.917969 3.070312 50.574219 4.433594 50.65625 5.886719 C 50.734375 7.339844 50.234375 8.769531 49.265625 9.851562 C 48.292969 10.9375 46.933594 11.59375 45.476562 11.675781 L 6.585938 13.839844 C 5.132812 13.921875 3.707031 13.421875 2.621094 12.449219 C 1.535156 11.480469 0.878906 10.117188 0.800781 8.664062 Z M 0.800781 8.664062 " clip-rule="nonzero"/></clipPath><clipPath id="8fab017bb8"><path d="M 0.675781 0.5 L 50.808594 0.5 L 50.808594 13.933594 L 0.675781 13.933594 Z M 0.675781 0.5 " clip-rule="nonzero"/></clipPath><clipPath id="b46772d4ab"><path d="M 1.105469 14.144531 L 0.496094 3.179688 L 50.351562 0.40625 L 50.960938 11.371094 Z M 1.105469 14.144531 " clip-rule="nonzero"/></clipPath><clipPath id="06d4dd8346"><path d="M 0.800781 8.664062 C 0.71875 7.210938 1.21875 5.78125 2.191406 4.699219 C 3.160156 3.613281 4.523438 2.957031 5.976562 2.875 L 44.867188 0.710938 C 46.320312 0.628906 47.746094 1.128906 48.832031 2.101562 C 49.917969 3.070312 50.574219 4.433594 50.65625 5.886719 C 50.734375 7.339844 50.234375 8.769531 49.265625 9.851562 C 48.292969 10.9375 46.933594 11.59375 45.476562 11.675781 L 6.585938 13.839844 C 5.132812 13.921875 3.707031 13.421875 2.621094 12.449219 C 1.535156 11.480469 0.878906 10.117188 0.800781 8.664062 Z M 0.800781 8.664062 " clip-rule="nonzero"/></clipPath><clipPath id="5845ed8784"><rect x="0" width="51" y="0" height="14"/></clipPath><clipPath id="54b16d5eef"><path d="M 0.4375 33 L 39 33 L 39 46 L 0.4375 46 Z M 0.4375 33 " clip-rule="nonzero"/></clipPath><clipPath id="133c8de5df"><path d="M 1.21875 45.957031 L 0.679688 34.625 L 37.949219 32.855469 L 38.488281 44.1875 Z M 1.21875 45.957031 " clip-rule="nonzero"/></clipPath><clipPath id="cbb526b7f5"><path d="M 0.949219 40.289062 C 0.878906 38.789062 1.40625 37.316406 2.417969 36.203125 C 3.429688 35.089844 4.84375 34.425781 6.34375 34.355469 L 32.257812 33.125 C 33.761719 33.054688 35.230469 33.582031 36.34375 34.59375 C 37.457031 35.605469 38.121094 37.019531 38.195312 38.523438 C 38.265625 40.023438 37.738281 41.492188 36.722656 42.605469 C 35.710938 43.71875 34.300781 44.386719 32.796875 44.457031 L 6.882812 45.6875 C 5.378906 45.757812 3.910156 45.230469 2.796875 44.21875 C 1.683594 43.207031 1.019531 41.792969 0.949219 40.289062 Z M 0.949219 40.289062 " clip-rule="nonzero"/></clipPath><clipPath id="12c6579063"><path d="M 0.675781 0 L 38.335938 0 L 38.335938 12.835938 L 0.675781 12.835938 Z M 0.675781 0 " clip-rule="nonzero"/></clipPath><clipPath id="835494be69"><path d="M 1.21875 12.957031 L 0.679688 1.625 L 37.949219 -0.144531 L 38.488281 11.1875 Z M 1.21875 12.957031 " clip-rule="nonzero"/></clipPath><clipPath id="221397e72b"><path d="M 0.949219 7.289062 C 0.878906 5.789062 1.40625 4.316406 2.417969 3.203125 C 3.429688 2.089844 4.84375 1.425781 6.34375 1.355469 L 32.257812 0.125 C 33.761719 0.0546875 35.230469 0.582031 36.34375 1.59375 C 37.457031 2.605469 38.121094 4.019531 38.195312 5.523438 C 38.265625 7.023438 37.738281 8.492188 36.722656 9.605469 C 35.710938 10.71875 34.300781 11.386719 32.796875 11.457031 L 6.882812 12.6875 C 5.378906 12.757812 3.910156 12.230469 2.796875 11.21875 C 1.683594 10.207031 1.019531 8.792969 0.949219 7.289062 Z M 0.949219 7.289062 " clip-rule="nonzero"/></clipPath><clipPath id="7a6602df5d"><rect x="0" width="39" y="0" height="13"/></clipPath><clipPath id="102b49a63d"><rect x="0" width="52" y="0" height="68"/></clipPath><clipPath id="d06d4e4395"><path d="M 44 28 L 174 28 L 174 74.980469 L 44 74.980469 Z M 44 28 " clip-rule="nonzero"/></clipPath><clipPath id="5a3d641c67"><rect x="0" width="130" y="0" height="47"/></clipPath><clipPath id="e39d9c7bda"><path d="M 179 27 L 224.761719 27 L 224.761719 67 L 179 67 Z M 179 27 " clip-rule="nonzero"/></clipPath><clipPath id="956c3c21b9"><path d="M 1 14 L 45.761719 14 L 45.761719 27 L 1 27 Z M 1 14 " clip-rule="nonzero"/></clipPath><clipPath id="bdff207f25"><path d="M 1.472656 26.5625 L 0.859375 16.519531 L 45.269531 13.800781 L 45.886719 23.84375 Z M 1.472656 26.5625 " clip-rule="nonzero"/></clipPath><clipPath id="6b6bec638c"><path d="M 1.167969 21.539062 C 0.996094 18.765625 3.109375 16.378906 5.882812 16.210938 L 40.242188 14.109375 C 43.015625 13.9375 45.402344 16.050781 45.570312 18.824219 C 45.742188 21.597656 43.628906 23.984375 40.855469 24.152344 L 6.496094 26.253906 C 3.722656 26.421875 1.335938 24.3125 1.167969 21.539062 Z M 1.167969 21.539062 " clip-rule="nonzero"/></clipPath><clipPath id="0ec1ff879e"><path d="M 0 0 L 44.761719 0 L 44.761719 12.511719 L 0 12.511719 Z M 0 0 " clip-rule="nonzero"/></clipPath><clipPath id="68db271582"><path d="M 0.472656 12.5625 L -0.140625 2.519531 L 44.269531 -0.199219 L 44.886719 9.84375 Z M 0.472656 12.5625 " clip-rule="nonzero"/></clipPath><clipPath id="e64b832e2b"><path d="M 0.167969 7.539062 C -0.00390625 4.765625 2.109375 2.378906 4.882812 2.210938 L 39.242188 0.109375 C 42.015625 -0.0625 44.402344 2.050781 44.570312 4.824219 C 44.742188 7.597656 42.628906 9.984375 39.855469 10.152344 L 5.496094 12.253906 C 2.722656 12.421875 0.335938 10.3125 0.167969 7.539062 Z M 0.167969 7.539062 " clip-rule="nonzero"/></clipPath><clipPath id="35c6097f26"><rect x="0" width="45" y="0" height="13"/></clipPath><clipPath id="084b0d43bb"><path d="M 16 0.367188 L 31 0.367188 L 31 39.945312 L 16 39.945312 Z M 16 0.367188 " clip-rule="nonzero"/></clipPath><clipPath id="8a095646fa"><path d="M 18.816406 0.46875 L 30.5625 1.269531 L 27.921875 39.941406 L 16.175781 39.136719 Z M 18.816406 0.46875 " clip-rule="nonzero"/></clipPath><clipPath id="c742868cd8"><path d="M 24.691406 0.867188 C 26.246094 0.972656 27.699219 1.695312 28.722656 2.871094 C 29.75 4.046875 30.265625 5.582031 30.160156 7.140625 L 28.324219 34.035156 C 28.21875 35.59375 27.496094 37.042969 26.320312 38.070312 C 25.144531 39.09375 23.609375 39.613281 22.050781 39.503906 C 20.492188 39.398438 19.042969 38.679688 18.015625 37.5 C 16.992188 36.324219 16.472656 34.789062 16.582031 33.230469 L 18.417969 6.339844 C 18.523438 4.78125 19.246094 3.332031 20.421875 2.304688 C 21.597656 1.277344 23.132812 0.761719 24.691406 0.867188 Z M 24.691406 0.867188 " clip-rule="nonzero"/></clipPath><clipPath id="c1e336d184"><path d="M 0.253906 0.605469 L 14.410156 0.605469 L 14.410156 39.703125 L 0.253906 39.703125 Z M 0.253906 0.605469 " clip-rule="nonzero"/></clipPath><clipPath id="a3d3421934"><path d="M 2.816406 0.46875 L 14.5625 1.269531 L 11.921875 39.941406 L 0.175781 39.136719 Z M 2.816406 0.46875 " clip-rule="nonzero"/></clipPath><clipPath id="57258dd18c"><path d="M 8.691406 0.867188 C 10.246094 0.972656 11.699219 1.695312 12.722656 2.871094 C 13.75 4.046875 14.265625 5.582031 14.160156 7.140625 L 12.324219 34.035156 C 12.21875 35.59375 11.496094 37.042969 10.320312 38.070312 C 9.144531 39.09375 7.609375 39.613281 6.050781 39.503906 C 4.492188 39.398438 3.042969 38.679688 2.015625 37.5 C 0.992188 36.324219 0.472656 34.789062 0.582031 33.230469 L 2.417969 6.339844 C 2.523438 4.78125 3.246094 3.332031 4.421875 2.304688 C 5.597656 1.277344 7.132812 0.761719 8.691406 0.867188 Z M 8.691406 0.867188 " clip-rule="nonzero"/></clipPath><clipPath id="72acf7c505"><rect x="0" width="15" y="0" height="40"/></clipPath><clipPath id="99b7fdde99"><rect x="0" width="46" y="0" height="40"/></clipPath></defs><g clip-path="url(#b20d9fdf07)"><g transform="matrix(1, 0, 0, 1, 7, -0.000000000000000833)"><g clip-path="url(#102b49a63d)"><g clip-path="url(#01a81d9e5e)"><g clip-path="url(#d6bf9cf77a)"><g clip-path="url(#b6f55ecefc)"><g transform="matrix(1, 0, 0, 1, 4, 6)"><g clip-path="url(#37c90c4c3f)"><g clip-path="url(#4f443be444)"><g clip-path="url(#3db304be26)"><g clip-path="url(#5487e531e8)"><path fill="#4f39f6" d="M 4.625 0.214844 L 17.929688 1.324219 L 12.910156 61.507812 L -0.394531 60.398438 Z M 4.625 0.214844 " fill-opacity="1" fill-rule="nonzero"/></g></g></g></g></g></g></g></g><g clip-path="url(#2a6028e723)"><g clip-path="url(#47c13abe70)"><g clip-path="url(#7499babc17)"><g transform="matrix(1, 0, 0, 1, 0.000000000000000888, -0.000000000000000777)"><g clip-path="url(#5845ed8784)"><g clip-path="url(#8fab017bb8)"><g clip-path="url(#b46772d4ab)"><g clip-path="url(#06d4dd8346)"><path fill="#4f39f6" d="M 1.105469 14.144531 L 0.496094 3.179688 L 50.351562 0.40625 L 50.960938 11.371094 Z M 1.105469 14.144531 " fill-opacity="1" fill-rule="nonzero"/></g></g></g></g></g></g></g></g><g clip-path="url(#54b16d5eef)"><g clip-path="url(#133c8de5df)"><g clip-path="url(#cbb526b7f5)"><g transform="matrix(1, 0, 0, 1, 0.000000000000000888, 33)"><g clip-path="url(#7a6602df5d)"><g clip-path="url(#12c6579063)"><g clip-path="url(#835494be69)"><g clip-path="url(#221397e72b)"><path fill="#4f39f6" d="M 1.21875 12.957031 L 0.679688 1.625 L 37.90625 -0.144531 L 38.441406 11.1875 Z M 1.21875 12.957031 " fill-opacity="1" fill-rule="nonzero"/></g></g></g></g></g></g></g></g></g></g></g><g clip-path="url(#d06d4e4395)"><g transform="matrix(1, 0, 0, 1, 44, 28)"><g clip-path="url(#5a3d641c67)"><g fill="#4f39f6" fill-opacity="1"><g transform="translate(0.313969, 37.019474)"><g><path d="M 3.609375 0.328125 C 2.597656 0.328125 1.863281 0 1.40625 -0.65625 C 0.945312 -1.320312 0.800781 -2.234375 0.96875 -3.390625 L 2.8125 -14.890625 C 2.976562 -15.941406 3.367188 -16.734375 3.984375 -17.265625 C 4.597656 -17.796875 5.429688 -18.0625 6.484375 -18.0625 C 7.492188 -18.0625 8.234375 -17.734375 8.703125 -17.078125 C 9.171875 -16.429688 9.3125 -15.519531 9.125 -14.34375 L 7.28125 -2.84375 C 7.132812 -1.789062 6.753906 -1 6.140625 -0.46875 C 5.535156 0.0625 4.691406 0.328125 3.609375 0.328125 Z M 6.953125 -20.625 C 5.828125 -20.625 5 -20.882812 4.46875 -21.40625 C 3.9375 -21.9375 3.742188 -22.679688 3.890625 -23.640625 C 4.035156 -24.679688 4.445312 -25.460938 5.125 -25.984375 C 5.8125 -26.515625 6.75 -26.78125 7.9375 -26.78125 C 9.039062 -26.78125 9.867188 -26.515625 10.421875 -25.984375 C 10.972656 -25.460938 11.175781 -24.71875 11.03125 -23.75 C 10.863281 -22.71875 10.4375 -21.9375 9.75 -21.40625 C 9.0625 -20.882812 8.128906 -20.625 6.953125 -20.625 Z M 6.953125 -20.625 "/></g></g></g><g fill="#4f39f6" fill-opacity="1"><g transform="translate(12.716828, 37.019474)"><g><path d="M 7.53125 0.390625 C 6.207031 0.390625 5.050781 0.078125 4.0625 -0.546875 C 3.082031 -1.171875 2.320312 -2.0625 1.78125 -3.21875 C 1.238281 -4.382812 0.96875 -5.75 0.96875 -7.3125 C 0.96875 -9.40625 1.335938 -11.269531 2.078125 -12.90625 C 2.828125 -14.539062 3.878906 -15.816406 5.234375 -16.734375 C 6.597656 -17.660156 8.171875 -18.125 9.953125 -18.125 C 11.222656 -18.125 12.335938 -17.84375 13.296875 -17.28125 C 14.265625 -16.71875 14.953125 -15.894531 15.359375 -14.8125 L 15.03125 -14.84375 L 16.25 -22.59375 C 16.425781 -23.65625 16.828125 -24.441406 17.453125 -24.953125 C 18.078125 -25.472656 18.914062 -25.734375 19.96875 -25.734375 C 20.976562 -25.734375 21.710938 -25.410156 22.171875 -24.765625 C 22.628906 -24.117188 22.769531 -23.207031 22.59375 -22.03125 L 19.578125 -2.890625 C 19.410156 -1.828125 19.019531 -1.023438 18.40625 -0.484375 C 17.789062 0.0546875 16.953125 0.328125 15.890625 0.328125 C 14.910156 0.328125 14.191406 -0.00390625 13.734375 -0.671875 C 13.273438 -1.347656 13.15625 -2.273438 13.375 -3.453125 L 13.546875 -4.578125 L 13.515625 -2.8125 C 12.816406 -1.800781 11.953125 -1.015625 10.921875 -0.453125 C 9.890625 0.109375 8.757812 0.390625 7.53125 0.390625 Z M 10.234375 -4.328125 C 11.054688 -4.328125 11.753906 -4.578125 12.328125 -5.078125 C 12.898438 -5.585938 13.34375 -6.269531 13.65625 -7.125 C 13.96875 -7.976562 14.125 -8.957031 14.125 -10.0625 C 14.125 -11.132812 13.878906 -11.957031 13.390625 -12.53125 C 12.898438 -13.113281 12.222656 -13.40625 11.359375 -13.40625 C 10.535156 -13.40625 9.828125 -13.164062 9.234375 -12.6875 C 8.648438 -12.207031 8.203125 -11.535156 7.890625 -10.671875 C 7.578125 -9.804688 7.421875 -8.804688 7.421875 -7.671875 C 7.421875 -6.597656 7.671875 -5.769531 8.171875 -5.1875 C 8.679688 -4.613281 9.367188 -4.328125 10.234375 -4.328125 Z M 10.234375 -4.328125 "/></g></g></g><g fill="#4f39f6" fill-opacity="1"><g transform="translate(37.342058, 37.019474)"><g><path d="M 10.484375 0.390625 C 8.585938 0.390625 6.929688 0.0507812 5.515625 -0.625 C 4.097656 -1.3125 2.992188 -2.28125 2.203125 -3.53125 C 1.410156 -4.78125 1.015625 -6.234375 1.015625 -7.890625 C 1.015625 -9.929688 1.460938 -11.722656 2.359375 -13.265625 C 3.265625 -14.804688 4.488281 -16 6.03125 -16.84375 C 7.582031 -17.695312 9.304688 -18.125 11.203125 -18.125 C 12.742188 -18.125 14.046875 -17.875 15.109375 -17.375 C 16.179688 -16.875 17.035156 -16.1875 17.671875 -15.3125 C 18.316406 -14.445312 18.742188 -13.46875 18.953125 -12.375 C 19.171875 -11.28125 19.207031 -10.160156 19.0625 -9.015625 C 18.988281 -8.410156 18.820312 -8.015625 18.5625 -7.828125 C 18.300781 -7.648438 17.953125 -7.5625 17.515625 -7.5625 L 6.234375 -7.5625 L 6.671875 -10.59375 L 14.671875 -10.59375 L 14.09375 -10.125 C 14.21875 -10.875 14.1875 -11.535156 14 -12.109375 C 13.820312 -12.691406 13.5 -13.144531 13.03125 -13.46875 C 12.5625 -13.789062 11.929688 -13.953125 11.140625 -13.953125 C 10.367188 -13.953125 9.71875 -13.78125 9.1875 -13.4375 C 8.664062 -13.101562 8.238281 -12.644531 7.90625 -12.0625 C 7.582031 -11.488281 7.375 -10.84375 7.28125 -10.125 L 7.03125 -8.71875 C 6.8125 -7.300781 7.070312 -6.210938 7.8125 -5.453125 C 8.5625 -4.703125 9.691406 -4.328125 11.203125 -4.328125 C 11.765625 -4.328125 12.382812 -4.382812 13.0625 -4.5 C 13.75 -4.625 14.34375 -4.804688 14.84375 -5.046875 C 15.5 -5.304688 16.046875 -5.363281 16.484375 -5.21875 C 16.929688 -5.082031 17.265625 -4.816406 17.484375 -4.421875 C 17.703125 -4.023438 17.789062 -3.582031 17.75 -3.09375 C 17.71875 -2.613281 17.554688 -2.148438 17.265625 -1.703125 C 16.972656 -1.265625 16.539062 -0.925781 15.96875 -0.6875 C 15.125 -0.300781 14.226562 -0.0234375 13.28125 0.140625 C 12.332031 0.304688 11.398438 0.390625 10.484375 0.390625 Z M 10.484375 0.390625 "/></g></g></g><g fill="#4f39f6" fill-opacity="1"><g transform="translate(59.623764, 37.019474)"><g><path d="M 7.53125 0.390625 C 5.226562 0.390625 3.570312 -0.242188 2.5625 -1.515625 C 1.550781 -2.785156 1.226562 -4.632812 1.59375 -7.0625 L 4.078125 -22.53125 C 4.242188 -23.582031 4.628906 -24.378906 5.234375 -24.921875 C 5.847656 -25.460938 6.6875 -25.734375 7.75 -25.734375 C 8.757812 -25.734375 9.5 -25.410156 9.96875 -24.765625 C 10.4375 -24.117188 10.570312 -23.207031 10.375 -22.03125 L 8 -7.171875 C 7.882812 -6.359375 7.96875 -5.738281 8.25 -5.3125 C 8.539062 -4.894531 8.972656 -4.6875 9.546875 -4.6875 C 9.742188 -4.6875 9.910156 -4.703125 10.046875 -4.734375 C 10.191406 -4.773438 10.351562 -4.796875 10.53125 -4.796875 C 10.84375 -4.796875 11.09375 -4.679688 11.28125 -4.453125 C 11.476562 -4.222656 11.578125 -3.785156 11.578125 -3.140625 C 11.578125 -2.128906 11.390625 -1.375 11.015625 -0.875 C 10.640625 -0.382812 10.203125 -0.0546875 9.703125 0.109375 C 9.460938 0.203125 9.132812 0.269531 8.71875 0.3125 C 8.3125 0.363281 7.914062 0.390625 7.53125 0.390625 Z M 7.53125 0.390625 "/></g></g></g><g fill="#4f39f6" fill-opacity="1"><g transform="translate(74.442253, 37.019474)"><g><path d="M 3.609375 0.328125 C 2.597656 0.328125 1.863281 0 1.40625 -0.65625 C 0.945312 -1.320312 0.800781 -2.234375 0.96875 -3.390625 L 2.8125 -14.890625 C 2.976562 -15.941406 3.367188 -16.734375 3.984375 -17.265625 C 4.597656 -17.796875 5.429688 -18.0625 6.484375 -18.0625 C 7.492188 -18.0625 8.234375 -17.734375 8.703125 -17.078125 C 9.171875 -16.429688 9.3125 -15.519531 9.125 -14.34375 L 7.28125 -2.84375 C 7.132812 -1.789062 6.753906 -1 6.140625 -0.46875 C 5.535156 0.0625 4.691406 0.328125 3.609375 0.328125 Z M 6.953125 -20.625 C 5.828125 -20.625 5 -20.882812 4.46875 -21.40625 C 3.9375 -21.9375 3.742188 -22.679688 3.890625 -23.640625 C 4.035156 -24.679688 4.445312 -25.460938 5.125 -25.984375 C 5.8125 -26.515625 6.75 -26.78125 7.9375 -26.78125 C 9.039062 -26.78125 9.867188 -26.515625 10.421875 -25.984375 C 10.972656 -25.460938 11.175781 -24.71875 11.03125 -23.75 C 10.863281 -22.71875 10.4375 -21.9375 9.75 -21.40625 C 9.0625 -20.882812 8.128906 -20.625 6.953125 -20.625 Z M 6.953125 -20.625 "/></g></g></g><g fill="#4f39f6" fill-opacity="1"><g transform="translate(86.845113, 37.019474)"><g><path d="M 3.09375 0 C 2.375 0 1.785156 -0.140625 1.328125 -0.421875 C 0.878906 -0.710938 0.566406 -1.097656 0.390625 -1.578125 C 0.222656 -2.066406 0.222656 -2.59375 0.390625 -3.15625 C 0.566406 -3.71875 0.914062 -4.253906 1.4375 -4.765625 L 11.171875 -14.453125 L 11.359375 -13.015625 L 4.6875 -13.015625 C 3.894531 -13.015625 3.28125 -13.179688 2.84375 -13.515625 C 2.414062 -13.847656 2.203125 -14.316406 2.203125 -14.921875 C 2.203125 -15.785156 2.453125 -16.46875 2.953125 -16.96875 C 3.460938 -17.476562 4.148438 -17.734375 5.015625 -17.734375 L 14.78125 -17.734375 C 15.519531 -17.734375 16.113281 -17.585938 16.5625 -17.296875 C 17.007812 -17.015625 17.3125 -16.625 17.46875 -16.125 C 17.625 -15.632812 17.609375 -15.097656 17.421875 -14.515625 C 17.242188 -13.941406 16.867188 -13.378906 16.296875 -12.828125 L 6.484375 -3.0625 L 6.3125 -4.71875 L 13.546875 -4.71875 C 15.234375 -4.71875 16.078125 -4.070312 16.078125 -2.78125 C 16.078125 -1.9375 15.816406 -1.257812 15.296875 -0.75 C 14.785156 -0.25 14.109375 0 13.265625 0 Z M 3.09375 0 "/></g></g></g><g fill="#4f39f6" fill-opacity="1"><g transform="translate(106.494864, 37.019474)"><g><path d="M 6.671875 0.390625 C 5.535156 0.390625 4.503906 0.128906 3.578125 -0.390625 C 2.660156 -0.921875 1.929688 -1.613281 1.390625 -2.46875 C 0.847656 -3.320312 0.578125 -4.242188 0.578125 -5.234375 C 0.578125 -6.472656 0.9375 -7.488281 1.65625 -8.28125 C 2.375 -9.082031 3.46875 -9.664062 4.9375 -10.03125 C 6.40625 -10.40625 8.253906 -10.59375 10.484375 -10.59375 L 13.34375 -10.59375 L 12.828125 -7.5625 L 10.484375 -7.5625 C 9.597656 -7.5625 8.875 -7.5 8.3125 -7.375 C 7.75 -7.257812 7.335938 -7.054688 7.078125 -6.765625 C 6.828125 -6.484375 6.703125 -6.113281 6.703125 -5.65625 C 6.703125 -5.082031 6.90625 -4.625 7.3125 -4.28125 C 7.726562 -3.945312 8.257812 -3.78125 8.90625 -3.78125 C 9.550781 -3.78125 10.109375 -3.898438 10.578125 -4.140625 C 11.046875 -4.378906 11.429688 -4.726562 11.734375 -5.1875 C 12.035156 -5.644531 12.234375 -6.175781 12.328125 -6.78125 L 12.984375 -10.921875 C 13.117188 -11.710938 12.945312 -12.335938 12.46875 -12.796875 C 11.988281 -13.253906 11.1875 -13.484375 10.0625 -13.484375 C 9.382812 -13.484375 8.703125 -13.414062 8.015625 -13.28125 C 7.335938 -13.144531 6.625 -12.9375 5.875 -12.65625 C 5.226562 -12.4375 4.671875 -12.410156 4.203125 -12.578125 C 3.734375 -12.742188 3.367188 -13.019531 3.109375 -13.40625 C 2.859375 -13.789062 2.742188 -14.226562 2.765625 -14.71875 C 2.796875 -15.21875 2.988281 -15.6875 3.34375 -16.125 C 3.707031 -16.570312 4.265625 -16.914062 5.015625 -17.15625 C 6.085938 -17.539062 7.117188 -17.796875 8.109375 -17.921875 C 9.097656 -18.054688 10.046875 -18.125 10.953125 -18.125 C 13.140625 -18.125 14.847656 -17.726562 16.078125 -16.9375 C 17.304688 -16.144531 18.128906 -15.085938 18.546875 -13.765625 C 18.960938 -12.441406 19.039062 -10.988281 18.78125 -9.40625 L 17.765625 -2.84375 C 17.597656 -1.789062 17.21875 -1 16.625 -0.46875 C 16.039062 0.0625 15.269531 0.328125 14.3125 0.328125 C 13.375 0.328125 12.679688 0.046875 12.234375 -0.515625 C 11.796875 -1.085938 11.671875 -1.960938 11.859375 -3.140625 L 12.109375 -4.65625 L 12.1875 -3.453125 C 11.820312 -2.566406 11.359375 -1.832031 10.796875 -1.25 C 10.234375 -0.675781 9.601562 -0.257812 8.90625 0 C 8.207031 0.257812 7.460938 0.390625 6.671875 0.390625 Z M 6.671875 0.390625 "/></g></g></g></g></g></g><g clip-path="url(#e39d9c7bda)"><g transform="matrix(1, 0, 0, 1, 179, 27)"><g clip-path="url(#99b7fdde99)"><g clip-path="url(#956c3c21b9)"><g clip-path="url(#bdff207f25)"><g clip-path="url(#6b6bec638c)"><g transform="matrix(1, 0, 0, 1, 1, 14)"><g clip-path="url(#35c6097f26)"><g clip-path="url(#0ec1ff879e)"><g clip-path="url(#68db271582)"><g clip-path="url(#e64b832e2b)"><path fill="#ffffff" d="M 0.472656 12.5625 L -0.140625 2.519531 L 44.269531 -0.199219 L 44.886719 9.84375 Z M 0.472656 12.5625 " fill-opacity="1" fill-rule="nonzero"/></g></g></g></g></g></g></g></g><g clip-path="url(#084b0d43bb)"><g clip-path="url(#8a095646fa)"><g clip-path="url(#c742868cd8)"><g transform="matrix(1, 0, 0, 1, 16, 0.000000000000003553)"><g clip-path="url(#72acf7c505)"><g clip-path="url(#c1e336d184)"><g clip-path="url(#a3d3421934)"><g clip-path="url(#57258dd18c)"><path fill="#ffffff" d="M 2.816406 0.46875 L 14.5625 1.269531 L 11.921875 39.894531 L 0.179688 39.09375 Z M 2.816406 0.46875 " fill-opacity="1" fill-rule="nonzero"/></g></g></g></g></g></g></g></g></g></g></g></svg>