<svg xmlns="http://www.w3.org/2000/svg" xmlns:xlink="http://www.w3.org/1999/xlink" width="500" zoomAndPan="magnify" viewBox="0 0 375 374.999991" height="500" preserveAspectRatio="xMidYMid meet" version="1.0"><defs><clipPath id="f49d95ab8a"><path d="M 19 33 L 125 33 L 125 375 L 19 375 Z M 19 33 " clip-rule="nonzero"/></clipPath><clipPath id="89e53dd80d"><path d="M 46.375 32.644531 L 125.785156 39.265625 L 97.714844 375.835938 L 18.300781 369.214844 Z M 46.375 32.644531 " clip-rule="nonzero"/></clipPath><clipPath id="f7fb4967aa"><path d="M 62.816406 34.015625 L 109.34375 37.894531 C 113.703125 38.257812 117.742188 40.339844 120.566406 43.679688 C 123.394531 47.019531 124.777344 51.347656 124.414062 55.710938 L 99.097656 359.238281 C 98.734375 363.601562 96.652344 367.636719 93.3125 370.464844 C 89.972656 373.289062 85.644531 374.675781 81.285156 374.3125 L 34.757812 370.429688 C 30.398438 370.066406 26.359375 367.984375 23.53125 364.644531 C 20.707031 361.304688 19.324219 356.976562 19.6875 352.617188 L 45 49.085938 C 45.367188 44.726562 47.445312 40.6875 50.789062 37.859375 C 54.128906 35.035156 58.457031 33.652344 62.816406 34.015625 Z M 62.816406 34.015625 " clip-rule="nonzero"/></clipPath><clipPath id="ea1d8a8843"><path d="M 0.199219 0.601562 L 105.800781 0.601562 L 105.800781 341.878906 L 0.199219 341.878906 Z M 0.199219 0.601562 " clip-rule="nonzero"/></clipPath><clipPath id="a48dab43d8"><path d="M 27.375 -0.355469 L 106.785156 6.265625 L 78.714844 342.835938 L -0.699219 336.214844 Z M 27.375 -0.355469 " clip-rule="nonzero"/></clipPath><clipPath id="cfddf79f2a"><path d="M 43.816406 1.015625 L 90.34375 4.894531 C 94.703125 5.257812 98.742188 7.339844 101.566406 10.679688 C 104.394531 14.019531 105.777344 18.347656 105.414062 22.710938 L 80.097656 326.238281 C 79.734375 330.601562 77.652344 334.636719 74.3125 337.464844 C 70.972656 340.289062 66.644531 341.675781 62.285156 341.3125 L 15.757812 337.429688 C 11.398438 337.066406 7.359375 334.984375 4.53125 331.644531 C 1.707031 328.304688 0.324219 323.976562 0.6875 319.617188 L 26 16.085938 C 26.367188 11.726562 28.445312 7.6875 31.789062 4.859375 C 35.128906 2.035156 39.457031 0.652344 43.816406 1.015625 Z M 43.816406 1.015625 " clip-rule="nonzero"/></clipPath><clipPath id="88236f4ea2"><rect x="0" width="106" y="0" height="342"/></clipPath><clipPath id="e84dd936e0"><path d="M 0 0 L 296 0 L 296 77 L 0 77 Z M 0 0 " clip-rule="nonzero"/></clipPath><clipPath id="58e696ace1"><path d="M 3.417969 77.574219 L 0.0078125 16.308594 L 292.941406 -0.0078125 L 296.351562 61.257812 Z M 3.417969 77.574219 " clip-rule="nonzero"/></clipPath><clipPath id="7ce909d725"><path d="M 2.503906 61.101562 L 0.925781 32.78125 C 0.683594 28.414062 2.183594 24.125 5.101562 20.863281 C 8.019531 17.601562 12.113281 15.632812 16.480469 15.390625 L 276.378906 0.914062 C 280.75 0.671875 285.035156 2.171875 288.296875 5.089844 C 291.558594 8.007812 293.527344 12.101562 293.769531 16.472656 L 295.347656 44.789062 C 295.59375 49.160156 294.089844 53.445312 291.171875 56.707031 C 288.253906 59.96875 284.160156 61.9375 279.792969 62.179688 L 19.894531 76.65625 C 15.523438 76.898438 11.238281 75.398438 7.976562 72.480469 C 4.714844 69.5625 2.746094 65.46875 2.503906 61.101562 Z M 2.503906 61.101562 " clip-rule="nonzero"/></clipPath><clipPath id="abe010e018"><path d="M 0.480469 0.480469 L 295.679688 0.480469 L 295.679688 77 L 0.480469 77 Z M 0.480469 0.480469 " clip-rule="nonzero"/></clipPath><clipPath id="37bebc6cf2"><path d="M 3.417969 77.574219 L 0.0078125 16.308594 L 292.941406 -0.0078125 L 296.351562 61.257812 Z M 3.417969 77.574219 " clip-rule="nonzero"/></clipPath><clipPath id="6f753f2a7b"><path d="M 2.503906 61.101562 L 0.925781 32.78125 C 0.683594 28.414062 2.183594 24.125 5.101562 20.863281 C 8.019531 17.601562 12.113281 15.632812 16.480469 15.390625 L 276.378906 0.914062 C 280.75 0.671875 285.035156 2.171875 288.296875 5.089844 C 291.558594 8.007812 293.527344 12.101562 293.769531 16.472656 L 295.347656 44.789062 C 295.59375 49.160156 294.089844 53.445312 291.171875 56.707031 C 288.253906 59.96875 284.160156 61.9375 279.792969 62.179688 L 19.894531 76.65625 C 15.523438 76.898438 11.238281 75.398438 7.976562 72.480469 C 4.714844 69.5625 2.746094 65.46875 2.503906 61.101562 Z M 2.503906 61.101562 " clip-rule="nonzero"/></clipPath><clipPath id="25034dcb89"><rect x="0" width="296" y="0" height="77"/></clipPath><clipPath id="c82800a6d8"><path d="M 1 182 L 223 182 L 223 255 L 1 255 Z M 1 182 " clip-rule="nonzero"/></clipPath><clipPath id="f367248f15"><path d="M 4.082031 255.339844 L 1.078125 192.003906 L 220.03125 181.613281 L 223.039062 244.949219 Z M 4.082031 255.339844 " clip-rule="nonzero"/></clipPath><clipPath id="6e08ad6d30"><path d="M 3.300781 238.859375 L 1.859375 208.484375 C 1.652344 204.113281 3.1875 199.839844 6.132812 196.601562 C 9.078125 193.363281 13.1875 191.429688 17.558594 191.222656 L 203.394531 182.402344 C 207.765625 182.195312 212.039062 183.730469 215.277344 186.675781 C 218.515625 189.621094 220.449219 193.730469 220.65625 198.101562 L 222.097656 228.472656 C 222.304688 232.84375 220.769531 237.121094 217.824219 240.355469 C 214.878906 243.59375 210.769531 245.53125 206.398438 245.738281 L 20.566406 254.558594 C 16.195312 254.765625 11.917969 253.226562 8.679688 250.285156 C 5.445312 247.339844 3.507812 243.230469 3.300781 238.859375 Z M 3.300781 238.859375 " clip-rule="nonzero"/></clipPath><clipPath id="b95ab2d03c"><path d="M 0.441406 0.160156 L 221.480469 0.160156 L 221.480469 72.878906 L 0.441406 72.878906 Z M 0.441406 0.160156 " clip-rule="nonzero"/></clipPath><clipPath id="81dc79ab17"><path d="M 3.082031 73.339844 L 0.078125 10.003906 L 219.03125 -0.386719 L 222.039062 62.949219 Z M 3.082031 73.339844 " clip-rule="nonzero"/></clipPath><clipPath id="5f3c87cf2d"><path d="M 2.300781 56.859375 L 0.859375 26.484375 C 0.652344 22.113281 2.1875 17.839844 5.132812 14.601562 C 8.078125 11.363281 12.1875 9.429688 16.558594 9.222656 L 202.394531 0.402344 C 206.765625 0.195312 211.039062 1.730469 214.277344 4.675781 C 217.515625 7.621094 219.449219 11.730469 219.65625 16.101562 L 221.097656 46.472656 C 221.304688 50.84375 219.769531 55.121094 216.824219 58.355469 C 213.878906 61.59375 209.769531 63.53125 205.398438 63.738281 L 19.566406 72.558594 C 15.195312 72.765625 10.917969 71.226562 7.679688 68.285156 C 4.445312 65.339844 2.507812 61.230469 2.300781 56.859375 Z M 2.300781 56.859375 " clip-rule="nonzero"/></clipPath><clipPath id="d26a05e0e5"><rect x="0" width="222" y="0" height="73"/></clipPath><clipPath id="4befab9895"><path d="M 214 271 L 375 271 L 375 315 L 214 315 Z M 214 271 " clip-rule="nonzero"/></clipPath><clipPath id="abf35d5437"><path d="M 215.9375 315.285156 L 213.839844 280.960938 L 373.03125 271.222656 L 375.128906 305.546875 Z M 215.9375 315.285156 " clip-rule="nonzero"/></clipPath><clipPath id="292a2153bb"><path d="M 215.558594 306.910156 L 214.476562 289.1875 C 214.34375 287.003906 215.082031 284.855469 216.53125 283.21875 C 217.980469 281.578125 220.023438 280.582031 222.207031 280.449219 L 364.664062 271.734375 C 366.847656 271.601562 368.996094 272.34375 370.636719 273.792969 C 372.273438 275.242188 373.269531 277.28125 373.402344 279.46875 L 374.488281 297.1875 C 374.621094 299.371094 373.882812 301.519531 372.429688 303.15625 C 370.980469 304.796875 368.941406 305.792969 366.757812 305.925781 L 224.296875 314.640625 C 222.113281 314.773438 219.964844 314.035156 218.328125 312.582031 C 216.6875 311.132812 215.691406 309.09375 215.558594 306.910156 Z M 215.558594 306.910156 " clip-rule="nonzero"/></clipPath><clipPath id="e9240920d0"><path d="M 0.320312 0.441406 L 160.640625 0.441406 L 160.640625 43.878906 L 0.320312 43.878906 Z M 0.320312 0.441406 " clip-rule="nonzero"/></clipPath><clipPath id="69a7417954"><path d="M 1.9375 44.285156 L -0.160156 9.960938 L 159.03125 0.222656 L 161.128906 34.546875 Z M 1.9375 44.285156 " clip-rule="nonzero"/></clipPath><clipPath id="e1746072ca"><path d="M 1.558594 35.910156 L 0.476562 18.1875 C 0.34375 16.003906 1.082031 13.855469 2.53125 12.21875 C 3.980469 10.578125 6.023438 9.582031 8.207031 9.449219 L 150.664062 0.734375 C 152.847656 0.601562 154.996094 1.34375 156.636719 2.792969 C 158.273438 4.242188 159.269531 6.28125 159.402344 8.46875 L 160.488281 26.1875 C 160.621094 28.371094 159.882812 30.519531 158.429688 32.15625 C 156.980469 33.796875 154.941406 34.792969 152.757812 34.925781 L 10.296875 43.640625 C 8.113281 43.773438 5.964844 43.035156 4.328125 41.582031 C 2.6875 40.132812 1.691406 38.09375 1.558594 35.910156 Z M 1.558594 35.910156 " clip-rule="nonzero"/></clipPath><clipPath id="a8af3fc87a"><rect x="0" width="161" y="0" height="44"/></clipPath><clipPath id="0402a1eb1f"><path d="M 269 226 L 320 226 L 320 360 L 269 360 Z M 269 226 " clip-rule="nonzero"/></clipPath><clipPath id="4e02f2a1f8"><path d="M 277.769531 225.925781 L 320.191406 228.824219 L 311.195312 360.566406 L 268.769531 357.667969 Z M 277.769531 225.925781 " clip-rule="nonzero"/></clipPath><clipPath id="4527c149bf"><path d="M 286 226.488281 L 311.960938 228.261719 C 314.144531 228.410156 316.179688 229.417969 317.617188 231.070312 C 319.054688 232.71875 319.78125 234.871094 319.632812 237.054688 L 311.761719 352.234375 C 311.613281 354.414062 310.605469 356.449219 308.957031 357.886719 C 307.304688 359.328125 305.152344 360.050781 302.96875 359.902344 L 277.007812 358.128906 C 274.824219 357.980469 272.792969 356.96875 271.355469 355.320312 C 269.914062 353.671875 269.191406 351.519531 269.339844 349.335938 L 277.207031 234.15625 C 277.355469 231.972656 278.367188 229.9375 280.015625 228.5 C 281.664062 227.0625 283.816406 226.335938 286 226.488281 Z M 286 226.488281 " clip-rule="nonzero"/></clipPath><clipPath id="dc996c5cf8"><path d="M 0.0390625 0.320312 L 50.921875 0.320312 L 50.921875 134 L 0.0390625 134 Z M 0.0390625 0.320312 " clip-rule="nonzero"/></clipPath><clipPath id="da4e45ef65"><path d="M 8.769531 -0.0742188 L 51.191406 2.824219 L 42.195312 134.566406 L -0.230469 131.667969 Z M 8.769531 -0.0742188 " clip-rule="nonzero"/></clipPath><clipPath id="a1e9e3435b"><path d="M 17 0.488281 L 42.960938 2.261719 C 45.144531 2.410156 47.179688 3.417969 48.617188 5.070312 C 50.054688 6.71875 50.78125 8.871094 50.632812 11.054688 L 42.761719 126.234375 C 42.613281 128.414062 41.605469 130.449219 39.957031 131.886719 C 38.304688 133.328125 36.152344 134.050781 33.96875 133.902344 L 8.007812 132.128906 C 5.824219 131.980469 3.792969 130.96875 2.355469 129.320312 C 0.914062 127.671875 0.191406 125.519531 0.339844 123.335938 L 8.207031 8.15625 C 8.355469 5.972656 9.367188 3.9375 11.015625 2.5 C 12.664062 1.0625 14.816406 0.335938 17 0.488281 Z M 17 0.488281 " clip-rule="nonzero"/></clipPath><clipPath id="b6f8cf9599"><rect x="0" width="51" y="0" height="134"/></clipPath></defs><g clip-path="url(#f49d95ab8a)"><g clip-path="url(#89e53dd80d)"><g clip-path="url(#f7fb4967aa)"><g transform="matrix(1, 0, 0, 1, 19, 33)"><g clip-path="url(#88236f4ea2)"><g clip-path="url(#ea1d8a8843)"><g clip-path="url(#a48dab43d8)"><g clip-path="url(#cfddf79f2a)"><path fill="#ffffff" d="M 27.375 -0.355469 L 106.785156 6.265625 L 78.714844 342.835938 L -0.699219 336.214844 Z M 27.375 -0.355469 " fill-opacity="1" fill-rule="nonzero"/></g></g></g></g></g></g></g></g><g clip-path="url(#e84dd936e0)"><g clip-path="url(#58e696ace1)"><g clip-path="url(#7ce909d725)"><g transform="matrix(1, 0, 0, 1, 0.000000000000000056, 0)"><g clip-path="url(#25034dcb89)"><g clip-path="url(#abe010e018)"><g clip-path="url(#37bebc6cf2)"><g clip-path="url(#6f753f2a7b)"><path fill="#ffffff" d="M 3.417969 77.574219 L 0.0078125 16.308594 L 292.941406 -0.0078125 L 296.351562 61.257812 Z M 3.417969 77.574219 " fill-opacity="1" fill-rule="nonzero"/></g></g></g></g></g></g></g></g><g clip-path="url(#c82800a6d8)"><g clip-path="url(#f367248f15)"><g clip-path="url(#6e08ad6d30)"><g transform="matrix(1, 0, 0, 1, 1, 182)"><g clip-path="url(#d26a05e0e5)"><g clip-path="url(#b95ab2d03c)"><g clip-path="url(#81dc79ab17)"><g clip-path="url(#5f3c87cf2d)"><path fill="#ffffff" d="M 3.082031 73.339844 L 0.078125 10.003906 L 218.785156 -0.375 L 221.789062 62.960938 Z M 3.082031 73.339844 " fill-opacity="1" fill-rule="nonzero"/></g></g></g></g></g></g></g></g><g clip-path="url(#4befab9895)"><g clip-path="url(#abf35d5437)"><g clip-path="url(#292a2153bb)"><g transform="matrix(1, 0, 0, 1, 214, 271)"><g clip-path="url(#a8af3fc87a)"><g clip-path="url(#e9240920d0)"><g clip-path="url(#69a7417954)"><g clip-path="url(#e1746072ca)"><path fill="#4f39f6" d="M 2.0625 44.144531 L -0.0273438 9.953125 L 158.898438 0.234375 L 160.988281 34.421875 Z M 2.0625 44.144531 " fill-opacity="1" fill-rule="nonzero"/></g></g></g></g></g></g></g></g><g clip-path="url(#0402a1eb1f)"><g clip-path="url(#4e02f2a1f8)"><g clip-path="url(#4527c149bf)"><g transform="matrix(1, 0, 0, 1, 269, 226)"><g clip-path="url(#b6f8cf9599)"><g clip-path="url(#dc996c5cf8)"><g clip-path="url(#da4e45ef65)"><g clip-path="url(#a1e9e3435b)"><path fill="#4f39f6" d="M 8.769531 -0.0742188 L 51.191406 2.824219 L 42.207031 134.398438 L -0.21875 131.503906 Z M 8.769531 -0.0742188 " fill-opacity="1" fill-rule="nonzero"/></g></g></g></g></g></g></g></g></svg>